<?xml version="1.0" encoding="utf-8" standalone="no"?>
<!DOCTYPE svg PUBLIC "-//W3C//DTD SVG 1.1//EN"
  "http://www.w3.org/Graphics/SVG/1.1/DTD/svg11.dtd">
<!-- Created with matplotlib (https://matplotlib.org/) -->
<svg height="745.495pt" version="1.1" viewBox="0 0 1382.865625 745.495" width="1382.865625pt" xmlns="http://www.w3.org/2000/svg" xmlns:xlink="http://www.w3.org/1999/xlink">
 <metadata>
  <rdf:RDF xmlns:cc="http://creativecommons.org/ns#" xmlns:dc="http://purl.org/dc/elements/1.1/" xmlns:rdf="http://www.w3.org/1999/02/22-rdf-syntax-ns#">
   <cc:Work>
    <dc:type rdf:resource="http://purl.org/dc/dcmitype/StillImage"/>
    <dc:date>2020-12-03T21:53:22.583769</dc:date>
    <dc:format>image/svg+xml</dc:format>
    <dc:creator>
     <cc:Agent>
      <dc:title>Matplotlib v3.3.1, https://matplotlib.org/</dc:title>
     </cc:Agent>
    </dc:creator>
   </cc:Work>
  </rdf:RDF>
 </metadata>
 <defs>
  <style type="text/css">*{stroke-linecap:butt;stroke-linejoin:round;}</style>
 </defs>
 <g id="figure_1">
  <g id="patch_1">
   <path d="M 0 745.495 
L 1382.865625 745.495 
L 1382.865625 0 
L 0 0 
z
" style="fill:none;"/>
  </g>
  <g id="axes_1">
   <g id="patch_2">
    <path d="M 36.465625 683.75625 
L 1375.665625 683.75625 
L 1375.665625 31.43625 
L 36.465625 31.43625 
z
" style="fill:#ffffff;"/>
   </g>
   <g id="matplotlib.axis_1">
    <g id="xtick_1">
     <g id="text_1">
      <!-- 8264 -->
      <g transform="translate(46.900279 721.29625)rotate(-90)scale(0.12 -0.12)">
       <defs>
        <path d="M 31.78125 34.625 
Q 24.75 34.625 20.71875 30.859375 
Q 16.703125 27.09375 16.703125 20.515625 
Q 16.703125 13.921875 20.71875 10.15625 
Q 24.75 6.390625 31.78125 6.390625 
Q 38.8125 6.390625 42.859375 10.171875 
Q 46.921875 13.96875 46.921875 20.515625 
Q 46.921875 27.09375 42.890625 30.859375 
Q 38.875 34.625 31.78125 34.625 
z
M 21.921875 38.8125 
Q 15.578125 40.375 12.03125 44.71875 
Q 8.5 49.078125 8.5 55.328125 
Q 8.5 64.0625 14.71875 69.140625 
Q 20.953125 74.21875 31.78125 74.21875 
Q 42.671875 74.21875 48.875 69.140625 
Q 55.078125 64.0625 55.078125 55.328125 
Q 55.078125 49.078125 51.53125 44.71875 
Q 48 40.375 41.703125 38.8125 
Q 48.828125 37.15625 52.796875 32.3125 
Q 56.78125 27.484375 56.78125 20.515625 
Q 56.78125 9.90625 50.3125 4.234375 
Q 43.84375 -1.421875 31.78125 -1.421875 
Q 19.734375 -1.421875 13.25 4.234375 
Q 6.78125 9.90625 6.78125 20.515625 
Q 6.78125 27.484375 10.78125 32.3125 
Q 14.796875 37.15625 21.921875 38.8125 
z
M 18.3125 54.390625 
Q 18.3125 48.734375 21.84375 45.5625 
Q 25.390625 42.390625 31.78125 42.390625 
Q 38.140625 42.390625 41.71875 45.5625 
Q 45.3125 48.734375 45.3125 54.390625 
Q 45.3125 60.0625 41.71875 63.234375 
Q 38.140625 66.40625 31.78125 66.40625 
Q 25.390625 66.40625 21.84375 63.234375 
Q 18.3125 60.0625 18.3125 54.390625 
z
" id="DejaVuSans-56"/>
        <path d="M 19.1875 8.296875 
L 53.609375 8.296875 
L 53.609375 0 
L 7.328125 0 
L 7.328125 8.296875 
Q 12.9375 14.109375 22.625 23.890625 
Q 32.328125 33.6875 34.8125 36.53125 
Q 39.546875 41.84375 41.421875 45.53125 
Q 43.3125 49.21875 43.3125 52.78125 
Q 43.3125 58.59375 39.234375 62.25 
Q 35.15625 65.921875 28.609375 65.921875 
Q 23.96875 65.921875 18.8125 64.3125 
Q 13.671875 62.703125 7.8125 59.421875 
L 7.8125 69.390625 
Q 13.765625 71.78125 18.9375 73 
Q 24.125 74.21875 28.421875 74.21875 
Q 39.75 74.21875 46.484375 68.546875 
Q 53.21875 62.890625 53.21875 53.421875 
Q 53.21875 48.921875 51.53125 44.890625 
Q 49.859375 40.875 45.40625 35.40625 
Q 44.1875 33.984375 37.640625 27.21875 
Q 31.109375 20.453125 19.1875 8.296875 
z
" id="DejaVuSans-50"/>
        <path d="M 33.015625 40.375 
Q 26.375 40.375 22.484375 35.828125 
Q 18.609375 31.296875 18.609375 23.390625 
Q 18.609375 15.53125 22.484375 10.953125 
Q 26.375 6.390625 33.015625 6.390625 
Q 39.65625 6.390625 43.53125 10.953125 
Q 47.40625 15.53125 47.40625 23.390625 
Q 47.40625 31.296875 43.53125 35.828125 
Q 39.65625 40.375 33.015625 40.375 
z
M 52.59375 71.296875 
L 52.59375 62.3125 
Q 48.875 64.0625 45.09375 64.984375 
Q 41.3125 65.921875 37.59375 65.921875 
Q 27.828125 65.921875 22.671875 59.328125 
Q 17.53125 52.734375 16.796875 39.40625 
Q 19.671875 43.65625 24.015625 45.921875 
Q 28.375 48.1875 33.59375 48.1875 
Q 44.578125 48.1875 50.953125 41.515625 
Q 57.328125 34.859375 57.328125 23.390625 
Q 57.328125 12.15625 50.6875 5.359375 
Q 44.046875 -1.421875 33.015625 -1.421875 
Q 20.359375 -1.421875 13.671875 8.265625 
Q 6.984375 17.96875 6.984375 36.375 
Q 6.984375 53.65625 15.1875 63.9375 
Q 23.390625 74.21875 37.203125 74.21875 
Q 40.921875 74.21875 44.703125 73.484375 
Q 48.484375 72.75 52.59375 71.296875 
z
" id="DejaVuSans-54"/>
        <path d="M 37.796875 64.3125 
L 12.890625 25.390625 
L 37.796875 25.390625 
z
M 35.203125 72.90625 
L 47.609375 72.90625 
L 47.609375 25.390625 
L 58.015625 25.390625 
L 58.015625 17.1875 
L 47.609375 17.1875 
L 47.609375 0 
L 37.796875 0 
L 37.796875 17.1875 
L 4.890625 17.1875 
L 4.890625 26.703125 
z
" id="DejaVuSans-52"/>
       </defs>
       <use xlink:href="#DejaVuSans-56"/>
       <use x="63.623047" xlink:href="#DejaVuSans-50"/>
       <use x="127.246094" xlink:href="#DejaVuSans-54"/>
       <use x="190.869141" xlink:href="#DejaVuSans-52"/>
      </g>
     </g>
    </g>
    <g id="xtick_2">
     <g id="text_2">
      <!-- (31) -->
      <g transform="translate(61.147088 715.39)rotate(-90)scale(0.12 -0.12)">
       <defs>
        <path d="M 31 75.875 
Q 24.46875 64.65625 21.28125 53.65625 
Q 18.109375 42.671875 18.109375 31.390625 
Q 18.109375 20.125 21.3125 9.0625 
Q 24.515625 -2 31 -13.1875 
L 23.1875 -13.1875 
Q 15.875 -1.703125 12.234375 9.375 
Q 8.59375 20.453125 8.59375 31.390625 
Q 8.59375 42.28125 12.203125 53.3125 
Q 15.828125 64.359375 23.1875 75.875 
z
" id="DejaVuSans-40"/>
        <path d="M 40.578125 39.3125 
Q 47.65625 37.796875 51.625 33 
Q 55.609375 28.21875 55.609375 21.1875 
Q 55.609375 10.40625 48.1875 4.484375 
Q 40.765625 -1.421875 27.09375 -1.421875 
Q 22.515625 -1.421875 17.65625 -0.515625 
Q 12.796875 0.390625 7.625 2.203125 
L 7.625 11.71875 
Q 11.71875 9.328125 16.59375 8.109375 
Q 21.484375 6.890625 26.8125 6.890625 
Q 36.078125 6.890625 40.9375 10.546875 
Q 45.796875 14.203125 45.796875 21.1875 
Q 45.796875 27.640625 41.28125 31.265625 
Q 36.765625 34.90625 28.71875 34.90625 
L 20.21875 34.90625 
L 20.21875 43.015625 
L 29.109375 43.015625 
Q 36.375 43.015625 40.234375 45.921875 
Q 44.09375 48.828125 44.09375 54.296875 
Q 44.09375 59.90625 40.109375 62.90625 
Q 36.140625 65.921875 28.71875 65.921875 
Q 24.65625 65.921875 20.015625 65.03125 
Q 15.375 64.15625 9.8125 62.3125 
L 9.8125 71.09375 
Q 15.4375 72.65625 20.34375 73.4375 
Q 25.25 74.21875 29.59375 74.21875 
Q 40.828125 74.21875 47.359375 69.109375 
Q 53.90625 64.015625 53.90625 55.328125 
Q 53.90625 49.265625 50.4375 45.09375 
Q 46.96875 40.921875 40.578125 39.3125 
z
" id="DejaVuSans-51"/>
        <path d="M 12.40625 8.296875 
L 28.515625 8.296875 
L 28.515625 63.921875 
L 10.984375 60.40625 
L 10.984375 69.390625 
L 28.421875 72.90625 
L 38.28125 72.90625 
L 38.28125 8.296875 
L 54.390625 8.296875 
L 54.390625 0 
L 12.40625 0 
z
" id="DejaVuSans-49"/>
        <path d="M 8.015625 75.875 
L 15.828125 75.875 
Q 23.140625 64.359375 26.78125 53.3125 
Q 30.421875 42.28125 30.421875 31.390625 
Q 30.421875 20.453125 26.78125 9.375 
Q 23.140625 -1.703125 15.828125 -13.1875 
L 8.015625 -13.1875 
Q 14.5 -2 17.703125 9.0625 
Q 20.90625 20.125 20.90625 31.390625 
Q 20.90625 42.671875 17.703125 53.65625 
Q 14.5 64.65625 8.015625 75.875 
z
" id="DejaVuSans-41"/>
       </defs>
       <use xlink:href="#DejaVuSans-40"/>
       <use x="39.013672" xlink:href="#DejaVuSans-51"/>
       <use x="102.636719" xlink:href="#DejaVuSans-49"/>
       <use x="166.259766" xlink:href="#DejaVuSans-41"/>
      </g>
     </g>
    </g>
    <g id="xtick_3">
     <g id="text_3">
      <!-- 7642 -->
      <g transform="translate(75.393896 721.29625)rotate(-90)scale(0.12 -0.12)">
       <defs>
        <path d="M 8.203125 72.90625 
L 55.078125 72.90625 
L 55.078125 68.703125 
L 28.609375 0 
L 18.3125 0 
L 43.21875 64.59375 
L 8.203125 64.59375 
z
" id="DejaVuSans-55"/>
       </defs>
       <use xlink:href="#DejaVuSans-55"/>
       <use x="63.623047" xlink:href="#DejaVuSans-54"/>
       <use x="127.246094" xlink:href="#DejaVuSans-52"/>
       <use x="190.869141" xlink:href="#DejaVuSans-50"/>
      </g>
     </g>
    </g>
    <g id="xtick_4">
     <g id="text_4">
      <!-- (23) -->
      <g transform="translate(89.640705 715.39)rotate(-90)scale(0.12 -0.12)">
       <use xlink:href="#DejaVuSans-40"/>
       <use x="39.013672" xlink:href="#DejaVuSans-50"/>
       <use x="102.636719" xlink:href="#DejaVuSans-51"/>
       <use x="166.259766" xlink:href="#DejaVuSans-41"/>
      </g>
     </g>
    </g>
    <g id="xtick_5">
     <g id="text_5">
      <!-- 8101 -->
      <g transform="translate(103.887513 721.29625)rotate(-90)scale(0.12 -0.12)">
       <defs>
        <path d="M 31.78125 66.40625 
Q 24.171875 66.40625 20.328125 58.90625 
Q 16.5 51.421875 16.5 36.375 
Q 16.5 21.390625 20.328125 13.890625 
Q 24.171875 6.390625 31.78125 6.390625 
Q 39.453125 6.390625 43.28125 13.890625 
Q 47.125 21.390625 47.125 36.375 
Q 47.125 51.421875 43.28125 58.90625 
Q 39.453125 66.40625 31.78125 66.40625 
z
M 31.78125 74.21875 
Q 44.046875 74.21875 50.515625 64.515625 
Q 56.984375 54.828125 56.984375 36.375 
Q 56.984375 17.96875 50.515625 8.265625 
Q 44.046875 -1.421875 31.78125 -1.421875 
Q 19.53125 -1.421875 13.0625 8.265625 
Q 6.59375 17.96875 6.59375 36.375 
Q 6.59375 54.828125 13.0625 64.515625 
Q 19.53125 74.21875 31.78125 74.21875 
z
" id="DejaVuSans-48"/>
       </defs>
       <use xlink:href="#DejaVuSans-56"/>
       <use x="63.623047" xlink:href="#DejaVuSans-49"/>
       <use x="127.246094" xlink:href="#DejaVuSans-48"/>
       <use x="190.869141" xlink:href="#DejaVuSans-49"/>
      </g>
     </g>
    </g>
    <g id="xtick_6">
     <g id="text_6">
      <!-- (81) -->
      <g transform="translate(118.134322 715.39)rotate(-90)scale(0.12 -0.12)">
       <use xlink:href="#DejaVuSans-40"/>
       <use x="39.013672" xlink:href="#DejaVuSans-56"/>
       <use x="102.636719" xlink:href="#DejaVuSans-49"/>
       <use x="166.259766" xlink:href="#DejaVuSans-41"/>
      </g>
     </g>
    </g>
    <g id="xtick_7">
     <g id="text_7">
      <!-- (1608) -->
      <g transform="translate(132.38113 730.66)rotate(-90)scale(0.12 -0.12)">
       <use xlink:href="#DejaVuSans-40"/>
       <use x="39.013672" xlink:href="#DejaVuSans-49"/>
       <use x="102.636719" xlink:href="#DejaVuSans-54"/>
       <use x="166.259766" xlink:href="#DejaVuSans-48"/>
       <use x="229.882812" xlink:href="#DejaVuSans-56"/>
       <use x="293.505859" xlink:href="#DejaVuSans-41"/>
      </g>
     </g>
    </g>
    <g id="xtick_8">
     <g id="text_8">
      <!-- (50) -->
      <g transform="translate(146.627939 715.39)rotate(-90)scale(0.12 -0.12)">
       <defs>
        <path d="M 10.796875 72.90625 
L 49.515625 72.90625 
L 49.515625 64.59375 
L 19.828125 64.59375 
L 19.828125 46.734375 
Q 21.96875 47.46875 24.109375 47.828125 
Q 26.265625 48.1875 28.421875 48.1875 
Q 40.625 48.1875 47.75 41.5 
Q 54.890625 34.8125 54.890625 23.390625 
Q 54.890625 11.625 47.5625 5.09375 
Q 40.234375 -1.421875 26.90625 -1.421875 
Q 22.3125 -1.421875 17.546875 -0.640625 
Q 12.796875 0.140625 7.71875 1.703125 
L 7.71875 11.625 
Q 12.109375 9.234375 16.796875 8.0625 
Q 21.484375 6.890625 26.703125 6.890625 
Q 35.15625 6.890625 40.078125 11.328125 
Q 45.015625 15.765625 45.015625 23.390625 
Q 45.015625 31 40.078125 35.4375 
Q 35.15625 39.890625 26.703125 39.890625 
Q 22.75 39.890625 18.8125 39.015625 
Q 14.890625 38.140625 10.796875 36.28125 
z
" id="DejaVuSans-53"/>
       </defs>
       <use xlink:href="#DejaVuSans-40"/>
       <use x="39.013672" xlink:href="#DejaVuSans-53"/>
       <use x="102.636719" xlink:href="#DejaVuSans-48"/>
       <use x="166.259766" xlink:href="#DejaVuSans-41"/>
      </g>
     </g>
    </g>
    <g id="xtick_9">
     <g id="text_9">
      <!-- 1500 -->
      <g transform="translate(160.874747 721.29625)rotate(-90)scale(0.12 -0.12)">
       <use xlink:href="#DejaVuSans-49"/>
       <use x="63.623047" xlink:href="#DejaVuSans-53"/>
       <use x="127.246094" xlink:href="#DejaVuSans-48"/>
       <use x="190.869141" xlink:href="#DejaVuSans-48"/>
      </g>
     </g>
    </g>
    <g id="xtick_10">
     <g id="text_10">
      <!-- (14) -->
      <g transform="translate(175.121556 715.39)rotate(-90)scale(0.12 -0.12)">
       <use xlink:href="#DejaVuSans-40"/>
       <use x="39.013672" xlink:href="#DejaVuSans-49"/>
       <use x="102.636719" xlink:href="#DejaVuSans-52"/>
       <use x="166.259766" xlink:href="#DejaVuSans-41"/>
      </g>
     </g>
    </g>
    <g id="xtick_11">
     <g id="text_11">
      <!-- 7945 -->
      <g transform="translate(189.368364 721.29625)rotate(-90)scale(0.12 -0.12)">
       <defs>
        <path d="M 10.984375 1.515625 
L 10.984375 10.5 
Q 14.703125 8.734375 18.5 7.8125 
Q 22.3125 6.890625 25.984375 6.890625 
Q 35.75 6.890625 40.890625 13.453125 
Q 46.046875 20.015625 46.78125 33.40625 
Q 43.953125 29.203125 39.59375 26.953125 
Q 35.25 24.703125 29.984375 24.703125 
Q 19.046875 24.703125 12.671875 31.3125 
Q 6.296875 37.9375 6.296875 49.421875 
Q 6.296875 60.640625 12.9375 67.421875 
Q 19.578125 74.21875 30.609375 74.21875 
Q 43.265625 74.21875 49.921875 64.515625 
Q 56.59375 54.828125 56.59375 36.375 
Q 56.59375 19.140625 48.40625 8.859375 
Q 40.234375 -1.421875 26.421875 -1.421875 
Q 22.703125 -1.421875 18.890625 -0.6875 
Q 15.09375 0.046875 10.984375 1.515625 
z
M 30.609375 32.421875 
Q 37.25 32.421875 41.125 36.953125 
Q 45.015625 41.5 45.015625 49.421875 
Q 45.015625 57.28125 41.125 61.84375 
Q 37.25 66.40625 30.609375 66.40625 
Q 23.96875 66.40625 20.09375 61.84375 
Q 16.21875 57.28125 16.21875 49.421875 
Q 16.21875 41.5 20.09375 36.953125 
Q 23.96875 32.421875 30.609375 32.421875 
z
" id="DejaVuSans-57"/>
       </defs>
       <use xlink:href="#DejaVuSans-55"/>
       <use x="63.623047" xlink:href="#DejaVuSans-57"/>
       <use x="127.246094" xlink:href="#DejaVuSans-52"/>
       <use x="190.869141" xlink:href="#DejaVuSans-53"/>
      </g>
     </g>
    </g>
    <g id="xtick_12">
     <g id="text_12">
      <!-- (57) -->
      <g transform="translate(203.615173 715.39)rotate(-90)scale(0.12 -0.12)">
       <use xlink:href="#DejaVuSans-40"/>
       <use x="39.013672" xlink:href="#DejaVuSans-53"/>
       <use x="102.636719" xlink:href="#DejaVuSans-55"/>
       <use x="166.259766" xlink:href="#DejaVuSans-41"/>
      </g>
     </g>
    </g>
    <g id="xtick_13">
     <g id="text_13">
      <!-- (14) -->
      <g transform="translate(217.861981 715.39)rotate(-90)scale(0.12 -0.12)">
       <use xlink:href="#DejaVuSans-40"/>
       <use x="39.013672" xlink:href="#DejaVuSans-49"/>
       <use x="102.636719" xlink:href="#DejaVuSans-52"/>
       <use x="166.259766" xlink:href="#DejaVuSans-41"/>
      </g>
     </g>
    </g>
    <g id="xtick_14">
     <g id="text_14">
      <!-- (15) -->
      <g transform="translate(232.10879 715.39)rotate(-90)scale(0.12 -0.12)">
       <use xlink:href="#DejaVuSans-40"/>
       <use x="39.013672" xlink:href="#DejaVuSans-49"/>
       <use x="102.636719" xlink:href="#DejaVuSans-53"/>
       <use x="166.259766" xlink:href="#DejaVuSans-41"/>
      </g>
     </g>
    </g>
    <g id="xtick_15">
     <g id="text_15">
      <!-- (14) -->
      <g transform="translate(246.355598 715.39)rotate(-90)scale(0.12 -0.12)">
       <use xlink:href="#DejaVuSans-40"/>
       <use x="39.013672" xlink:href="#DejaVuSans-49"/>
       <use x="102.636719" xlink:href="#DejaVuSans-52"/>
       <use x="166.259766" xlink:href="#DejaVuSans-41"/>
      </g>
     </g>
    </g>
    <g id="xtick_16">
     <g id="text_16">
      <!-- (11) -->
      <g transform="translate(260.602407 715.39)rotate(-90)scale(0.12 -0.12)">
       <use xlink:href="#DejaVuSans-40"/>
       <use x="39.013672" xlink:href="#DejaVuSans-49"/>
       <use x="102.636719" xlink:href="#DejaVuSans-49"/>
       <use x="166.259766" xlink:href="#DejaVuSans-41"/>
      </g>
     </g>
    </g>
    <g id="xtick_17">
     <g id="text_17">
      <!-- (43) -->
      <g transform="translate(274.849215 715.39)rotate(-90)scale(0.12 -0.12)">
       <use xlink:href="#DejaVuSans-40"/>
       <use x="39.013672" xlink:href="#DejaVuSans-52"/>
       <use x="102.636719" xlink:href="#DejaVuSans-51"/>
       <use x="166.259766" xlink:href="#DejaVuSans-41"/>
      </g>
     </g>
    </g>
    <g id="xtick_18">
     <g id="text_18">
      <!-- (81) -->
      <g transform="translate(289.096024 715.39)rotate(-90)scale(0.12 -0.12)">
       <use xlink:href="#DejaVuSans-40"/>
       <use x="39.013672" xlink:href="#DejaVuSans-56"/>
       <use x="102.636719" xlink:href="#DejaVuSans-49"/>
       <use x="166.259766" xlink:href="#DejaVuSans-41"/>
      </g>
     </g>
    </g>
    <g id="xtick_19">
     <g id="text_19">
      <!-- (76) -->
      <g transform="translate(303.342832 715.39)rotate(-90)scale(0.12 -0.12)">
       <use xlink:href="#DejaVuSans-40"/>
       <use x="39.013672" xlink:href="#DejaVuSans-55"/>
       <use x="102.636719" xlink:href="#DejaVuSans-54"/>
       <use x="166.259766" xlink:href="#DejaVuSans-41"/>
      </g>
     </g>
    </g>
    <g id="xtick_20">
     <g id="text_20">
      <!-- (23) -->
      <g transform="translate(317.589641 715.39)rotate(-90)scale(0.12 -0.12)">
       <use xlink:href="#DejaVuSans-40"/>
       <use x="39.013672" xlink:href="#DejaVuSans-50"/>
       <use x="102.636719" xlink:href="#DejaVuSans-51"/>
       <use x="166.259766" xlink:href="#DejaVuSans-41"/>
      </g>
     </g>
    </g>
    <g id="xtick_21">
     <g id="text_21">
      <!-- 2024 -->
      <g transform="translate(331.836449 721.29625)rotate(-90)scale(0.12 -0.12)">
       <use xlink:href="#DejaVuSans-50"/>
       <use x="63.623047" xlink:href="#DejaVuSans-48"/>
       <use x="127.246094" xlink:href="#DejaVuSans-50"/>
       <use x="190.869141" xlink:href="#DejaVuSans-52"/>
      </g>
     </g>
    </g>
    <g id="xtick_22">
     <g id="text_22">
      <!-- (36) -->
      <g transform="translate(346.083258 715.39)rotate(-90)scale(0.12 -0.12)">
       <use xlink:href="#DejaVuSans-40"/>
       <use x="39.013672" xlink:href="#DejaVuSans-51"/>
       <use x="102.636719" xlink:href="#DejaVuSans-54"/>
       <use x="166.259766" xlink:href="#DejaVuSans-41"/>
      </g>
     </g>
    </g>
    <g id="xtick_23">
     <g id="text_23">
      <!-- (39) -->
      <g transform="translate(360.330066 715.39)rotate(-90)scale(0.12 -0.12)">
       <use xlink:href="#DejaVuSans-40"/>
       <use x="39.013672" xlink:href="#DejaVuSans-51"/>
       <use x="102.636719" xlink:href="#DejaVuSans-57"/>
       <use x="166.259766" xlink:href="#DejaVuSans-41"/>
      </g>
     </g>
    </g>
    <g id="xtick_24">
     <g id="text_24">
      <!-- (247) -->
      <g transform="translate(374.576875 723.025)rotate(-90)scale(0.12 -0.12)">
       <use xlink:href="#DejaVuSans-40"/>
       <use x="39.013672" xlink:href="#DejaVuSans-50"/>
       <use x="102.636719" xlink:href="#DejaVuSans-52"/>
       <use x="166.259766" xlink:href="#DejaVuSans-55"/>
       <use x="229.882812" xlink:href="#DejaVuSans-41"/>
      </g>
     </g>
    </g>
    <g id="xtick_25">
     <g id="text_25">
      <!-- 8427 -->
      <g transform="translate(388.823684 721.29625)rotate(-90)scale(0.12 -0.12)">
       <use xlink:href="#DejaVuSans-56"/>
       <use x="63.623047" xlink:href="#DejaVuSans-52"/>
       <use x="127.246094" xlink:href="#DejaVuSans-50"/>
       <use x="190.869141" xlink:href="#DejaVuSans-55"/>
      </g>
     </g>
    </g>
    <g id="xtick_26">
     <g id="text_26">
      <!-- (246) -->
      <g transform="translate(403.070492 723.025)rotate(-90)scale(0.12 -0.12)">
       <use xlink:href="#DejaVuSans-40"/>
       <use x="39.013672" xlink:href="#DejaVuSans-50"/>
       <use x="102.636719" xlink:href="#DejaVuSans-52"/>
       <use x="166.259766" xlink:href="#DejaVuSans-54"/>
       <use x="229.882812" xlink:href="#DejaVuSans-41"/>
      </g>
     </g>
    </g>
    <g id="xtick_27">
     <g id="text_27">
      <!-- (24) -->
      <g transform="translate(417.317301 715.39)rotate(-90)scale(0.12 -0.12)">
       <use xlink:href="#DejaVuSans-40"/>
       <use x="39.013672" xlink:href="#DejaVuSans-50"/>
       <use x="102.636719" xlink:href="#DejaVuSans-52"/>
       <use x="166.259766" xlink:href="#DejaVuSans-41"/>
      </g>
     </g>
    </g>
    <g id="xtick_28">
     <g id="text_28">
      <!-- (18) -->
      <g transform="translate(431.564109 715.39)rotate(-90)scale(0.12 -0.12)">
       <use xlink:href="#DejaVuSans-40"/>
       <use x="39.013672" xlink:href="#DejaVuSans-49"/>
       <use x="102.636719" xlink:href="#DejaVuSans-56"/>
       <use x="166.259766" xlink:href="#DejaVuSans-41"/>
      </g>
     </g>
    </g>
    <g id="xtick_29">
     <g id="text_29">
      <!-- (15) -->
      <g transform="translate(445.810918 715.39)rotate(-90)scale(0.12 -0.12)">
       <use xlink:href="#DejaVuSans-40"/>
       <use x="39.013672" xlink:href="#DejaVuSans-49"/>
       <use x="102.636719" xlink:href="#DejaVuSans-53"/>
       <use x="166.259766" xlink:href="#DejaVuSans-41"/>
      </g>
     </g>
    </g>
    <g id="xtick_30">
     <g id="text_30">
      <!-- (33) -->
      <g transform="translate(460.057726 715.39)rotate(-90)scale(0.12 -0.12)">
       <use xlink:href="#DejaVuSans-40"/>
       <use x="39.013672" xlink:href="#DejaVuSans-51"/>
       <use x="102.636719" xlink:href="#DejaVuSans-51"/>
       <use x="166.259766" xlink:href="#DejaVuSans-41"/>
      </g>
     </g>
    </g>
    <g id="xtick_31">
     <g id="text_31">
      <!-- (17) -->
      <g transform="translate(474.304535 715.39)rotate(-90)scale(0.12 -0.12)">
       <use xlink:href="#DejaVuSans-40"/>
       <use x="39.013672" xlink:href="#DejaVuSans-49"/>
       <use x="102.636719" xlink:href="#DejaVuSans-55"/>
       <use x="166.259766" xlink:href="#DejaVuSans-41"/>
      </g>
     </g>
    </g>
    <g id="xtick_32">
     <g id="text_32">
      <!-- (12) -->
      <g transform="translate(488.551343 715.39)rotate(-90)scale(0.12 -0.12)">
       <use xlink:href="#DejaVuSans-40"/>
       <use x="39.013672" xlink:href="#DejaVuSans-49"/>
       <use x="102.636719" xlink:href="#DejaVuSans-50"/>
       <use x="166.259766" xlink:href="#DejaVuSans-41"/>
      </g>
     </g>
    </g>
    <g id="xtick_33">
     <g id="text_33">
      <!-- 10898 -->
      <g transform="translate(502.798152 728.93125)rotate(-90)scale(0.12 -0.12)">
       <use xlink:href="#DejaVuSans-49"/>
       <use x="63.623047" xlink:href="#DejaVuSans-48"/>
       <use x="127.246094" xlink:href="#DejaVuSans-56"/>
       <use x="190.869141" xlink:href="#DejaVuSans-57"/>
       <use x="254.492188" xlink:href="#DejaVuSans-56"/>
      </g>
     </g>
    </g>
    <g id="xtick_34">
     <g id="text_34">
      <!-- 42338 -->
      <g transform="translate(517.04496 728.93125)rotate(-90)scale(0.12 -0.12)">
       <use xlink:href="#DejaVuSans-52"/>
       <use x="63.623047" xlink:href="#DejaVuSans-50"/>
       <use x="127.246094" xlink:href="#DejaVuSans-51"/>
       <use x="190.869141" xlink:href="#DejaVuSans-51"/>
       <use x="254.492188" xlink:href="#DejaVuSans-56"/>
      </g>
     </g>
    </g>
    <g id="xtick_35">
     <g id="text_35">
      <!-- (94) -->
      <g transform="translate(531.291769 715.39)rotate(-90)scale(0.12 -0.12)">
       <use xlink:href="#DejaVuSans-40"/>
       <use x="39.013672" xlink:href="#DejaVuSans-57"/>
       <use x="102.636719" xlink:href="#DejaVuSans-52"/>
       <use x="166.259766" xlink:href="#DejaVuSans-41"/>
      </g>
     </g>
    </g>
    <g id="xtick_36">
     <g id="text_36">
      <!-- (107) -->
      <g transform="translate(545.538577 723.025)rotate(-90)scale(0.12 -0.12)">
       <use xlink:href="#DejaVuSans-40"/>
       <use x="39.013672" xlink:href="#DejaVuSans-49"/>
       <use x="102.636719" xlink:href="#DejaVuSans-48"/>
       <use x="166.259766" xlink:href="#DejaVuSans-55"/>
       <use x="229.882812" xlink:href="#DejaVuSans-41"/>
      </g>
     </g>
    </g>
    <g id="xtick_37">
     <g id="text_37">
      <!-- (695) -->
      <g transform="translate(559.785386 723.025)rotate(-90)scale(0.12 -0.12)">
       <use xlink:href="#DejaVuSans-40"/>
       <use x="39.013672" xlink:href="#DejaVuSans-54"/>
       <use x="102.636719" xlink:href="#DejaVuSans-57"/>
       <use x="166.259766" xlink:href="#DejaVuSans-53"/>
       <use x="229.882812" xlink:href="#DejaVuSans-41"/>
      </g>
     </g>
    </g>
    <g id="xtick_38">
     <g id="text_38">
      <!-- (52) -->
      <g transform="translate(574.032194 715.39)rotate(-90)scale(0.12 -0.12)">
       <use xlink:href="#DejaVuSans-40"/>
       <use x="39.013672" xlink:href="#DejaVuSans-53"/>
       <use x="102.636719" xlink:href="#DejaVuSans-50"/>
       <use x="166.259766" xlink:href="#DejaVuSans-41"/>
      </g>
     </g>
    </g>
    <g id="xtick_39">
     <g id="text_39">
      <!-- (68) -->
      <g transform="translate(588.279003 715.39)rotate(-90)scale(0.12 -0.12)">
       <use xlink:href="#DejaVuSans-40"/>
       <use x="39.013672" xlink:href="#DejaVuSans-54"/>
       <use x="102.636719" xlink:href="#DejaVuSans-56"/>
       <use x="166.259766" xlink:href="#DejaVuSans-41"/>
      </g>
     </g>
    </g>
    <g id="xtick_40">
     <g id="text_40">
      <!-- (149) -->
      <g transform="translate(602.525811 723.025)rotate(-90)scale(0.12 -0.12)">
       <use xlink:href="#DejaVuSans-40"/>
       <use x="39.013672" xlink:href="#DejaVuSans-49"/>
       <use x="102.636719" xlink:href="#DejaVuSans-52"/>
       <use x="166.259766" xlink:href="#DejaVuSans-57"/>
       <use x="229.882812" xlink:href="#DejaVuSans-41"/>
      </g>
     </g>
    </g>
    <g id="xtick_41">
     <g id="text_41">
      <!-- (131) -->
      <g transform="translate(616.77262 723.025)rotate(-90)scale(0.12 -0.12)">
       <use xlink:href="#DejaVuSans-40"/>
       <use x="39.013672" xlink:href="#DejaVuSans-49"/>
       <use x="102.636719" xlink:href="#DejaVuSans-51"/>
       <use x="166.259766" xlink:href="#DejaVuSans-49"/>
       <use x="229.882812" xlink:href="#DejaVuSans-41"/>
      </g>
     </g>
    </g>
    <g id="xtick_42">
     <g id="text_42">
      <!-- (882) -->
      <g transform="translate(631.019428 723.025)rotate(-90)scale(0.12 -0.12)">
       <use xlink:href="#DejaVuSans-40"/>
       <use x="39.013672" xlink:href="#DejaVuSans-56"/>
       <use x="102.636719" xlink:href="#DejaVuSans-56"/>
       <use x="166.259766" xlink:href="#DejaVuSans-50"/>
       <use x="229.882812" xlink:href="#DejaVuSans-41"/>
      </g>
     </g>
    </g>
    <g id="xtick_43">
     <g id="text_43">
      <!-- (53) -->
      <g transform="translate(645.266237 715.39)rotate(-90)scale(0.12 -0.12)">
       <use xlink:href="#DejaVuSans-40"/>
       <use x="39.013672" xlink:href="#DejaVuSans-53"/>
       <use x="102.636719" xlink:href="#DejaVuSans-51"/>
       <use x="166.259766" xlink:href="#DejaVuSans-41"/>
      </g>
     </g>
    </g>
    <g id="xtick_44">
     <g id="text_44">
      <!-- (216) -->
      <g transform="translate(659.513045 723.025)rotate(-90)scale(0.12 -0.12)">
       <use xlink:href="#DejaVuSans-40"/>
       <use x="39.013672" xlink:href="#DejaVuSans-50"/>
       <use x="102.636719" xlink:href="#DejaVuSans-49"/>
       <use x="166.259766" xlink:href="#DejaVuSans-54"/>
       <use x="229.882812" xlink:href="#DejaVuSans-41"/>
      </g>
     </g>
    </g>
    <g id="xtick_45">
     <g id="text_45">
      <!-- (2) -->
      <g transform="translate(673.759854 707.755)rotate(-90)scale(0.12 -0.12)">
       <use xlink:href="#DejaVuSans-40"/>
       <use x="39.013672" xlink:href="#DejaVuSans-50"/>
       <use x="102.636719" xlink:href="#DejaVuSans-41"/>
      </g>
     </g>
    </g>
    <g id="xtick_46">
     <g id="text_46">
      <!-- (772) -->
      <g transform="translate(688.006662 723.025)rotate(-90)scale(0.12 -0.12)">
       <use xlink:href="#DejaVuSans-40"/>
       <use x="39.013672" xlink:href="#DejaVuSans-55"/>
       <use x="102.636719" xlink:href="#DejaVuSans-55"/>
       <use x="166.259766" xlink:href="#DejaVuSans-50"/>
       <use x="229.882812" xlink:href="#DejaVuSans-41"/>
      </g>
     </g>
    </g>
    <g id="xtick_47">
     <g id="text_47">
      <!-- (187) -->
      <g transform="translate(702.253471 723.025)rotate(-90)scale(0.12 -0.12)">
       <use xlink:href="#DejaVuSans-40"/>
       <use x="39.013672" xlink:href="#DejaVuSans-49"/>
       <use x="102.636719" xlink:href="#DejaVuSans-56"/>
       <use x="166.259766" xlink:href="#DejaVuSans-55"/>
       <use x="229.882812" xlink:href="#DejaVuSans-41"/>
      </g>
     </g>
    </g>
    <g id="xtick_48">
     <g id="text_48">
      <!-- (128) -->
      <g transform="translate(716.500279 723.025)rotate(-90)scale(0.12 -0.12)">
       <use xlink:href="#DejaVuSans-40"/>
       <use x="39.013672" xlink:href="#DejaVuSans-49"/>
       <use x="102.636719" xlink:href="#DejaVuSans-50"/>
       <use x="166.259766" xlink:href="#DejaVuSans-56"/>
       <use x="229.882812" xlink:href="#DejaVuSans-41"/>
      </g>
     </g>
    </g>
    <g id="xtick_49">
     <g id="text_49">
      <!-- (1715) -->
      <g transform="translate(730.747088 730.66)rotate(-90)scale(0.12 -0.12)">
       <use xlink:href="#DejaVuSans-40"/>
       <use x="39.013672" xlink:href="#DejaVuSans-49"/>
       <use x="102.636719" xlink:href="#DejaVuSans-55"/>
       <use x="166.259766" xlink:href="#DejaVuSans-49"/>
       <use x="229.882812" xlink:href="#DejaVuSans-53"/>
       <use x="293.505859" xlink:href="#DejaVuSans-41"/>
      </g>
     </g>
    </g>
    <g id="xtick_50">
     <g id="text_50">
      <!-- (1468) -->
      <g transform="translate(744.993896 730.66)rotate(-90)scale(0.12 -0.12)">
       <use xlink:href="#DejaVuSans-40"/>
       <use x="39.013672" xlink:href="#DejaVuSans-49"/>
       <use x="102.636719" xlink:href="#DejaVuSans-52"/>
       <use x="166.259766" xlink:href="#DejaVuSans-54"/>
       <use x="229.882812" xlink:href="#DejaVuSans-56"/>
       <use x="293.505859" xlink:href="#DejaVuSans-41"/>
      </g>
     </g>
    </g>
    <g id="xtick_51">
     <g id="text_51">
      <!-- 12093 -->
      <g transform="translate(759.240705 728.93125)rotate(-90)scale(0.12 -0.12)">
       <use xlink:href="#DejaVuSans-49"/>
       <use x="63.623047" xlink:href="#DejaVuSans-50"/>
       <use x="127.246094" xlink:href="#DejaVuSans-48"/>
       <use x="190.869141" xlink:href="#DejaVuSans-57"/>
       <use x="254.492188" xlink:href="#DejaVuSans-51"/>
      </g>
     </g>
    </g>
    <g id="xtick_52">
     <g id="text_52">
      <!-- 24379 -->
      <g transform="translate(773.487513 728.93125)rotate(-90)scale(0.12 -0.12)">
       <use xlink:href="#DejaVuSans-50"/>
       <use x="63.623047" xlink:href="#DejaVuSans-52"/>
       <use x="127.246094" xlink:href="#DejaVuSans-51"/>
       <use x="190.869141" xlink:href="#DejaVuSans-55"/>
       <use x="254.492188" xlink:href="#DejaVuSans-57"/>
      </g>
     </g>
    </g>
    <g id="xtick_53">
     <g id="text_53">
      <!-- 24493 -->
      <g transform="translate(787.734322 728.93125)rotate(-90)scale(0.12 -0.12)">
       <use xlink:href="#DejaVuSans-50"/>
       <use x="63.623047" xlink:href="#DejaVuSans-52"/>
       <use x="127.246094" xlink:href="#DejaVuSans-52"/>
       <use x="190.869141" xlink:href="#DejaVuSans-57"/>
       <use x="254.492188" xlink:href="#DejaVuSans-51"/>
      </g>
     </g>
    </g>
    <g id="xtick_54">
     <g id="text_54">
      <!-- (127) -->
      <g transform="translate(801.98113 723.025)rotate(-90)scale(0.12 -0.12)">
       <use xlink:href="#DejaVuSans-40"/>
       <use x="39.013672" xlink:href="#DejaVuSans-49"/>
       <use x="102.636719" xlink:href="#DejaVuSans-50"/>
       <use x="166.259766" xlink:href="#DejaVuSans-55"/>
       <use x="229.882812" xlink:href="#DejaVuSans-41"/>
      </g>
     </g>
    </g>
    <g id="xtick_55">
     <g id="text_55">
      <!-- (9) -->
      <g transform="translate(816.227939 707.755)rotate(-90)scale(0.12 -0.12)">
       <use xlink:href="#DejaVuSans-40"/>
       <use x="39.013672" xlink:href="#DejaVuSans-57"/>
       <use x="102.636719" xlink:href="#DejaVuSans-41"/>
      </g>
     </g>
    </g>
    <g id="xtick_56">
     <g id="text_56">
      <!-- (586) -->
      <g transform="translate(830.474747 723.025)rotate(-90)scale(0.12 -0.12)">
       <use xlink:href="#DejaVuSans-40"/>
       <use x="39.013672" xlink:href="#DejaVuSans-53"/>
       <use x="102.636719" xlink:href="#DejaVuSans-56"/>
       <use x="166.259766" xlink:href="#DejaVuSans-54"/>
       <use x="229.882812" xlink:href="#DejaVuSans-41"/>
      </g>
     </g>
    </g>
    <g id="xtick_57">
     <g id="text_57">
      <!-- 24082 -->
      <g transform="translate(844.721556 728.93125)rotate(-90)scale(0.12 -0.12)">
       <use xlink:href="#DejaVuSans-50"/>
       <use x="63.623047" xlink:href="#DejaVuSans-52"/>
       <use x="127.246094" xlink:href="#DejaVuSans-48"/>
       <use x="190.869141" xlink:href="#DejaVuSans-56"/>
       <use x="254.492188" xlink:href="#DejaVuSans-50"/>
      </g>
     </g>
    </g>
    <g id="xtick_58">
     <g id="text_58">
      <!-- 8304 -->
      <g transform="translate(858.968364 721.29625)rotate(-90)scale(0.12 -0.12)">
       <use xlink:href="#DejaVuSans-56"/>
       <use x="63.623047" xlink:href="#DejaVuSans-51"/>
       <use x="127.246094" xlink:href="#DejaVuSans-48"/>
       <use x="190.869141" xlink:href="#DejaVuSans-52"/>
      </g>
     </g>
    </g>
    <g id="xtick_59">
     <g id="text_59">
      <!-- (16) -->
      <g transform="translate(873.215173 715.39)rotate(-90)scale(0.12 -0.12)">
       <use xlink:href="#DejaVuSans-40"/>
       <use x="39.013672" xlink:href="#DejaVuSans-49"/>
       <use x="102.636719" xlink:href="#DejaVuSans-54"/>
       <use x="166.259766" xlink:href="#DejaVuSans-41"/>
      </g>
     </g>
    </g>
    <g id="xtick_60">
     <g id="text_60">
      <!-- (234) -->
      <g transform="translate(887.461981 723.025)rotate(-90)scale(0.12 -0.12)">
       <use xlink:href="#DejaVuSans-40"/>
       <use x="39.013672" xlink:href="#DejaVuSans-50"/>
       <use x="102.636719" xlink:href="#DejaVuSans-51"/>
       <use x="166.259766" xlink:href="#DejaVuSans-52"/>
       <use x="229.882812" xlink:href="#DejaVuSans-41"/>
      </g>
     </g>
    </g>
    <g id="xtick_61">
     <g id="text_61">
      <!-- (1098) -->
      <g transform="translate(901.70879 730.66)rotate(-90)scale(0.12 -0.12)">
       <use xlink:href="#DejaVuSans-40"/>
       <use x="39.013672" xlink:href="#DejaVuSans-49"/>
       <use x="102.636719" xlink:href="#DejaVuSans-48"/>
       <use x="166.259766" xlink:href="#DejaVuSans-57"/>
       <use x="229.882812" xlink:href="#DejaVuSans-56"/>
       <use x="293.505859" xlink:href="#DejaVuSans-41"/>
      </g>
     </g>
    </g>
    <g id="xtick_62">
     <g id="text_62">
      <!-- (1324) -->
      <g transform="translate(915.955598 730.66)rotate(-90)scale(0.12 -0.12)">
       <use xlink:href="#DejaVuSans-40"/>
       <use x="39.013672" xlink:href="#DejaVuSans-49"/>
       <use x="102.636719" xlink:href="#DejaVuSans-51"/>
       <use x="166.259766" xlink:href="#DejaVuSans-50"/>
       <use x="229.882812" xlink:href="#DejaVuSans-52"/>
       <use x="293.505859" xlink:href="#DejaVuSans-41"/>
      </g>
     </g>
    </g>
    <g id="xtick_63">
     <g id="text_63">
      <!-- (363) -->
      <g transform="translate(930.202407 723.025)rotate(-90)scale(0.12 -0.12)">
       <use xlink:href="#DejaVuSans-40"/>
       <use x="39.013672" xlink:href="#DejaVuSans-51"/>
       <use x="102.636719" xlink:href="#DejaVuSans-54"/>
       <use x="166.259766" xlink:href="#DejaVuSans-51"/>
       <use x="229.882812" xlink:href="#DejaVuSans-41"/>
      </g>
     </g>
    </g>
    <g id="xtick_64">
     <g id="text_64">
      <!-- (35) -->
      <g transform="translate(944.449215 715.39)rotate(-90)scale(0.12 -0.12)">
       <use xlink:href="#DejaVuSans-40"/>
       <use x="39.013672" xlink:href="#DejaVuSans-51"/>
       <use x="102.636719" xlink:href="#DejaVuSans-53"/>
       <use x="166.259766" xlink:href="#DejaVuSans-41"/>
      </g>
     </g>
    </g>
    <g id="xtick_65">
     <g id="text_65">
      <!-- (135) -->
      <g transform="translate(958.696024 723.025)rotate(-90)scale(0.12 -0.12)">
       <use xlink:href="#DejaVuSans-40"/>
       <use x="39.013672" xlink:href="#DejaVuSans-49"/>
       <use x="102.636719" xlink:href="#DejaVuSans-51"/>
       <use x="166.259766" xlink:href="#DejaVuSans-53"/>
       <use x="229.882812" xlink:href="#DejaVuSans-41"/>
      </g>
     </g>
    </g>
    <g id="xtick_66">
     <g id="text_66">
      <!-- (2626) -->
      <g transform="translate(972.942832 730.66)rotate(-90)scale(0.12 -0.12)">
       <use xlink:href="#DejaVuSans-40"/>
       <use x="39.013672" xlink:href="#DejaVuSans-50"/>
       <use x="102.636719" xlink:href="#DejaVuSans-54"/>
       <use x="166.259766" xlink:href="#DejaVuSans-50"/>
       <use x="229.882812" xlink:href="#DejaVuSans-54"/>
       <use x="293.505859" xlink:href="#DejaVuSans-41"/>
      </g>
     </g>
    </g>
    <g id="xtick_67">
     <g id="text_67">
      <!-- (347) -->
      <g transform="translate(987.189641 723.025)rotate(-90)scale(0.12 -0.12)">
       <use xlink:href="#DejaVuSans-40"/>
       <use x="39.013672" xlink:href="#DejaVuSans-51"/>
       <use x="102.636719" xlink:href="#DejaVuSans-52"/>
       <use x="166.259766" xlink:href="#DejaVuSans-55"/>
       <use x="229.882812" xlink:href="#DejaVuSans-41"/>
      </g>
     </g>
    </g>
    <g id="xtick_68">
     <g id="text_68">
      <!-- (721) -->
      <g transform="translate(1001.436449 723.025)rotate(-90)scale(0.12 -0.12)">
       <use xlink:href="#DejaVuSans-40"/>
       <use x="39.013672" xlink:href="#DejaVuSans-55"/>
       <use x="102.636719" xlink:href="#DejaVuSans-50"/>
       <use x="166.259766" xlink:href="#DejaVuSans-49"/>
       <use x="229.882812" xlink:href="#DejaVuSans-41"/>
      </g>
     </g>
    </g>
    <g id="xtick_69">
     <g id="text_69">
      <!-- (7053) -->
      <g transform="translate(1015.683258 730.66)rotate(-90)scale(0.12 -0.12)">
       <use xlink:href="#DejaVuSans-40"/>
       <use x="39.013672" xlink:href="#DejaVuSans-55"/>
       <use x="102.636719" xlink:href="#DejaVuSans-48"/>
       <use x="166.259766" xlink:href="#DejaVuSans-53"/>
       <use x="229.882812" xlink:href="#DejaVuSans-51"/>
       <use x="293.505859" xlink:href="#DejaVuSans-41"/>
      </g>
     </g>
    </g>
    <g id="xtick_70">
     <g id="text_70">
      <!-- (3566) -->
      <g transform="translate(1029.930066 730.66)rotate(-90)scale(0.12 -0.12)">
       <use xlink:href="#DejaVuSans-40"/>
       <use x="39.013672" xlink:href="#DejaVuSans-51"/>
       <use x="102.636719" xlink:href="#DejaVuSans-53"/>
       <use x="166.259766" xlink:href="#DejaVuSans-54"/>
       <use x="229.882812" xlink:href="#DejaVuSans-54"/>
       <use x="293.505859" xlink:href="#DejaVuSans-41"/>
      </g>
     </g>
    </g>
    <g id="xtick_71">
     <g id="text_71">
      <!-- (11969) -->
      <g transform="translate(1044.176875 738.295)rotate(-90)scale(0.12 -0.12)">
       <use xlink:href="#DejaVuSans-40"/>
       <use x="39.013672" xlink:href="#DejaVuSans-49"/>
       <use x="102.636719" xlink:href="#DejaVuSans-49"/>
       <use x="166.259766" xlink:href="#DejaVuSans-57"/>
       <use x="229.882812" xlink:href="#DejaVuSans-54"/>
       <use x="293.505859" xlink:href="#DejaVuSans-57"/>
       <use x="357.128906" xlink:href="#DejaVuSans-41"/>
      </g>
     </g>
    </g>
    <g id="xtick_72">
     <g id="text_72">
      <!-- 12349 -->
      <g transform="translate(1058.423684 728.93125)rotate(-90)scale(0.12 -0.12)">
       <use xlink:href="#DejaVuSans-49"/>
       <use x="63.623047" xlink:href="#DejaVuSans-50"/>
       <use x="127.246094" xlink:href="#DejaVuSans-51"/>
       <use x="190.869141" xlink:href="#DejaVuSans-52"/>
       <use x="254.492188" xlink:href="#DejaVuSans-57"/>
      </g>
     </g>
    </g>
    <g id="xtick_73">
     <g id="text_73">
      <!-- (6) -->
      <g transform="translate(1072.670492 707.755)rotate(-90)scale(0.12 -0.12)">
       <use xlink:href="#DejaVuSans-40"/>
       <use x="39.013672" xlink:href="#DejaVuSans-54"/>
       <use x="102.636719" xlink:href="#DejaVuSans-41"/>
      </g>
     </g>
    </g>
    <g id="xtick_74">
     <g id="text_74">
      <!-- (12) -->
      <g transform="translate(1086.917301 715.39)rotate(-90)scale(0.12 -0.12)">
       <use xlink:href="#DejaVuSans-40"/>
       <use x="39.013672" xlink:href="#DejaVuSans-49"/>
       <use x="102.636719" xlink:href="#DejaVuSans-50"/>
       <use x="166.259766" xlink:href="#DejaVuSans-41"/>
      </g>
     </g>
    </g>
    <g id="xtick_75">
     <g id="text_75">
      <!-- (154) -->
      <g transform="translate(1101.164109 723.025)rotate(-90)scale(0.12 -0.12)">
       <use xlink:href="#DejaVuSans-40"/>
       <use x="39.013672" xlink:href="#DejaVuSans-49"/>
       <use x="102.636719" xlink:href="#DejaVuSans-53"/>
       <use x="166.259766" xlink:href="#DejaVuSans-52"/>
       <use x="229.882812" xlink:href="#DejaVuSans-41"/>
      </g>
     </g>
    </g>
    <g id="xtick_76">
     <g id="text_76">
      <!-- (439) -->
      <g transform="translate(1115.410918 723.025)rotate(-90)scale(0.12 -0.12)">
       <use xlink:href="#DejaVuSans-40"/>
       <use x="39.013672" xlink:href="#DejaVuSans-52"/>
       <use x="102.636719" xlink:href="#DejaVuSans-51"/>
       <use x="166.259766" xlink:href="#DejaVuSans-57"/>
       <use x="229.882812" xlink:href="#DejaVuSans-41"/>
      </g>
     </g>
    </g>
    <g id="xtick_77">
     <g id="text_77">
      <!-- (3376) -->
      <g transform="translate(1129.657726 730.66)rotate(-90)scale(0.12 -0.12)">
       <use xlink:href="#DejaVuSans-40"/>
       <use x="39.013672" xlink:href="#DejaVuSans-51"/>
       <use x="102.636719" xlink:href="#DejaVuSans-51"/>
       <use x="166.259766" xlink:href="#DejaVuSans-55"/>
       <use x="229.882812" xlink:href="#DejaVuSans-54"/>
       <use x="293.505859" xlink:href="#DejaVuSans-41"/>
      </g>
     </g>
    </g>
    <g id="xtick_78">
     <g id="text_78">
      <!-- (71) -->
      <g transform="translate(1143.904535 715.39)rotate(-90)scale(0.12 -0.12)">
       <use xlink:href="#DejaVuSans-40"/>
       <use x="39.013672" xlink:href="#DejaVuSans-55"/>
       <use x="102.636719" xlink:href="#DejaVuSans-49"/>
       <use x="166.259766" xlink:href="#DejaVuSans-41"/>
      </g>
     </g>
    </g>
    <g id="xtick_79">
     <g id="text_79">
      <!-- (641) -->
      <g transform="translate(1158.151343 723.025)rotate(-90)scale(0.12 -0.12)">
       <use xlink:href="#DejaVuSans-40"/>
       <use x="39.013672" xlink:href="#DejaVuSans-54"/>
       <use x="102.636719" xlink:href="#DejaVuSans-52"/>
       <use x="166.259766" xlink:href="#DejaVuSans-49"/>
       <use x="229.882812" xlink:href="#DejaVuSans-41"/>
      </g>
     </g>
    </g>
    <g id="xtick_80">
     <g id="text_80">
      <!-- 8155 -->
      <g transform="translate(1172.398152 721.29625)rotate(-90)scale(0.12 -0.12)">
       <use xlink:href="#DejaVuSans-56"/>
       <use x="63.623047" xlink:href="#DejaVuSans-49"/>
       <use x="127.246094" xlink:href="#DejaVuSans-53"/>
       <use x="190.869141" xlink:href="#DejaVuSans-53"/>
      </g>
     </g>
    </g>
    <g id="xtick_81">
     <g id="text_81">
      <!-- 596 -->
      <g transform="translate(1186.64496 713.66125)rotate(-90)scale(0.12 -0.12)">
       <use xlink:href="#DejaVuSans-53"/>
       <use x="63.623047" xlink:href="#DejaVuSans-57"/>
       <use x="127.246094" xlink:href="#DejaVuSans-54"/>
      </g>
     </g>
    </g>
    <g id="xtick_82">
     <g id="text_82">
      <!-- 1821 -->
      <g transform="translate(1200.891769 721.29625)rotate(-90)scale(0.12 -0.12)">
       <use xlink:href="#DejaVuSans-49"/>
       <use x="63.623047" xlink:href="#DejaVuSans-56"/>
       <use x="127.246094" xlink:href="#DejaVuSans-50"/>
       <use x="190.869141" xlink:href="#DejaVuSans-49"/>
      </g>
     </g>
    </g>
    <g id="xtick_83">
     <g id="text_83">
      <!-- (201) -->
      <g transform="translate(1215.138577 723.025)rotate(-90)scale(0.12 -0.12)">
       <use xlink:href="#DejaVuSans-40"/>
       <use x="39.013672" xlink:href="#DejaVuSans-50"/>
       <use x="102.636719" xlink:href="#DejaVuSans-48"/>
       <use x="166.259766" xlink:href="#DejaVuSans-49"/>
       <use x="229.882812" xlink:href="#DejaVuSans-41"/>
      </g>
     </g>
    </g>
    <g id="xtick_84">
     <g id="text_84">
      <!-- (89) -->
      <g transform="translate(1229.385386 715.39)rotate(-90)scale(0.12 -0.12)">
       <use xlink:href="#DejaVuSans-40"/>
       <use x="39.013672" xlink:href="#DejaVuSans-56"/>
       <use x="102.636719" xlink:href="#DejaVuSans-57"/>
       <use x="166.259766" xlink:href="#DejaVuSans-41"/>
      </g>
     </g>
    </g>
    <g id="xtick_85">
     <g id="text_85">
      <!-- (796) -->
      <g transform="translate(1243.632194 723.025)rotate(-90)scale(0.12 -0.12)">
       <use xlink:href="#DejaVuSans-40"/>
       <use x="39.013672" xlink:href="#DejaVuSans-55"/>
       <use x="102.636719" xlink:href="#DejaVuSans-57"/>
       <use x="166.259766" xlink:href="#DejaVuSans-54"/>
       <use x="229.882812" xlink:href="#DejaVuSans-41"/>
      </g>
     </g>
    </g>
    <g id="xtick_86">
     <g id="text_86">
      <!-- (970) -->
      <g transform="translate(1257.879003 723.025)rotate(-90)scale(0.12 -0.12)">
       <use xlink:href="#DejaVuSans-40"/>
       <use x="39.013672" xlink:href="#DejaVuSans-57"/>
       <use x="102.636719" xlink:href="#DejaVuSans-55"/>
       <use x="166.259766" xlink:href="#DejaVuSans-48"/>
       <use x="229.882812" xlink:href="#DejaVuSans-41"/>
      </g>
     </g>
    </g>
    <g id="xtick_87">
     <g id="text_87">
      <!-- (75) -->
      <g transform="translate(1272.125811 715.39)rotate(-90)scale(0.12 -0.12)">
       <use xlink:href="#DejaVuSans-40"/>
       <use x="39.013672" xlink:href="#DejaVuSans-55"/>
       <use x="102.636719" xlink:href="#DejaVuSans-53"/>
       <use x="166.259766" xlink:href="#DejaVuSans-41"/>
      </g>
     </g>
    </g>
    <g id="xtick_88">
     <g id="text_88">
      <!-- (69) -->
      <g transform="translate(1286.37262 715.39)rotate(-90)scale(0.12 -0.12)">
       <use xlink:href="#DejaVuSans-40"/>
       <use x="39.013672" xlink:href="#DejaVuSans-54"/>
       <use x="102.636719" xlink:href="#DejaVuSans-57"/>
       <use x="166.259766" xlink:href="#DejaVuSans-41"/>
      </g>
     </g>
    </g>
    <g id="xtick_89">
     <g id="text_89">
      <!-- (95) -->
      <g transform="translate(1300.619428 715.39)rotate(-90)scale(0.12 -0.12)">
       <use xlink:href="#DejaVuSans-40"/>
       <use x="39.013672" xlink:href="#DejaVuSans-57"/>
       <use x="102.636719" xlink:href="#DejaVuSans-53"/>
       <use x="166.259766" xlink:href="#DejaVuSans-41"/>
      </g>
     </g>
    </g>
    <g id="xtick_90">
     <g id="text_90">
      <!-- (1800) -->
      <g transform="translate(1314.866237 730.66)rotate(-90)scale(0.12 -0.12)">
       <use xlink:href="#DejaVuSans-40"/>
       <use x="39.013672" xlink:href="#DejaVuSans-49"/>
       <use x="102.636719" xlink:href="#DejaVuSans-56"/>
       <use x="166.259766" xlink:href="#DejaVuSans-48"/>
       <use x="229.882812" xlink:href="#DejaVuSans-48"/>
       <use x="293.505859" xlink:href="#DejaVuSans-41"/>
      </g>
     </g>
    </g>
    <g id="xtick_91">
     <g id="text_91">
      <!-- (753) -->
      <g transform="translate(1329.113045 723.025)rotate(-90)scale(0.12 -0.12)">
       <use xlink:href="#DejaVuSans-40"/>
       <use x="39.013672" xlink:href="#DejaVuSans-55"/>
       <use x="102.636719" xlink:href="#DejaVuSans-53"/>
       <use x="166.259766" xlink:href="#DejaVuSans-51"/>
       <use x="229.882812" xlink:href="#DejaVuSans-41"/>
      </g>
     </g>
    </g>
    <g id="xtick_92">
     <g id="text_92">
      <!-- (591) -->
      <g transform="translate(1343.359854 723.025)rotate(-90)scale(0.12 -0.12)">
       <use xlink:href="#DejaVuSans-40"/>
       <use x="39.013672" xlink:href="#DejaVuSans-53"/>
       <use x="102.636719" xlink:href="#DejaVuSans-57"/>
       <use x="166.259766" xlink:href="#DejaVuSans-49"/>
       <use x="229.882812" xlink:href="#DejaVuSans-41"/>
      </g>
     </g>
    </g>
    <g id="xtick_93">
     <g id="text_93">
      <!-- (2038) -->
      <g transform="translate(1357.606662 730.66)rotate(-90)scale(0.12 -0.12)">
       <use xlink:href="#DejaVuSans-40"/>
       <use x="39.013672" xlink:href="#DejaVuSans-50"/>
       <use x="102.636719" xlink:href="#DejaVuSans-48"/>
       <use x="166.259766" xlink:href="#DejaVuSans-51"/>
       <use x="229.882812" xlink:href="#DejaVuSans-56"/>
       <use x="293.505859" xlink:href="#DejaVuSans-41"/>
      </g>
     </g>
    </g>
    <g id="xtick_94">
     <g id="text_94">
      <!-- (6059) -->
      <g transform="translate(1371.853471 730.66)rotate(-90)scale(0.12 -0.12)">
       <use xlink:href="#DejaVuSans-40"/>
       <use x="39.013672" xlink:href="#DejaVuSans-54"/>
       <use x="102.636719" xlink:href="#DejaVuSans-48"/>
       <use x="166.259766" xlink:href="#DejaVuSans-53"/>
       <use x="229.882812" xlink:href="#DejaVuSans-57"/>
       <use x="293.505859" xlink:href="#DejaVuSans-41"/>
      </g>
     </g>
    </g>
   </g>
   <g id="matplotlib.axis_2">
    <g id="ytick_1">
     <g id="line2d_1">
      <defs>
       <path d="M 0 0 
L -3.5 0 
" id="mc5a1181e84" style="stroke:#000000;stroke-width:0.8;"/>
      </defs>
      <g>
       <use style="stroke:#000000;stroke-width:0.8;" x="36.465625" xlink:href="#mc5a1181e84" y="683.75625"/>
      </g>
     </g>
     <g id="text_95">
      <!-- 0.00 -->
      <g transform="translate(7.2 687.555469)scale(0.1 -0.1)">
       <defs>
        <path d="M 10.6875 12.40625 
L 21 12.40625 
L 21 0 
L 10.6875 0 
z
" id="DejaVuSans-46"/>
       </defs>
       <use xlink:href="#DejaVuSans-48"/>
       <use x="63.623047" xlink:href="#DejaVuSans-46"/>
       <use x="95.410156" xlink:href="#DejaVuSans-48"/>
       <use x="159.033203" xlink:href="#DejaVuSans-48"/>
      </g>
     </g>
    </g>
    <g id="ytick_2">
     <g id="line2d_2">
      <g>
       <use style="stroke:#000000;stroke-width:0.8;" x="36.465625" xlink:href="#mc5a1181e84" y="559.962948"/>
      </g>
     </g>
     <g id="text_96">
      <!-- 0.05 -->
      <g transform="translate(7.2 563.762167)scale(0.1 -0.1)">
       <use xlink:href="#DejaVuSans-48"/>
       <use x="63.623047" xlink:href="#DejaVuSans-46"/>
       <use x="95.410156" xlink:href="#DejaVuSans-48"/>
       <use x="159.033203" xlink:href="#DejaVuSans-53"/>
      </g>
     </g>
    </g>
    <g id="ytick_3">
     <g id="line2d_3">
      <g>
       <use style="stroke:#000000;stroke-width:0.8;" x="36.465625" xlink:href="#mc5a1181e84" y="436.169646"/>
      </g>
     </g>
     <g id="text_97">
      <!-- 0.10 -->
      <g transform="translate(7.2 439.968864)scale(0.1 -0.1)">
       <use xlink:href="#DejaVuSans-48"/>
       <use x="63.623047" xlink:href="#DejaVuSans-46"/>
       <use x="95.410156" xlink:href="#DejaVuSans-49"/>
       <use x="159.033203" xlink:href="#DejaVuSans-48"/>
      </g>
     </g>
    </g>
    <g id="ytick_4">
     <g id="line2d_4">
      <g>
       <use style="stroke:#000000;stroke-width:0.8;" x="36.465625" xlink:href="#mc5a1181e84" y="312.376343"/>
      </g>
     </g>
     <g id="text_98">
      <!-- 0.15 -->
      <g transform="translate(7.2 316.175562)scale(0.1 -0.1)">
       <use xlink:href="#DejaVuSans-48"/>
       <use x="63.623047" xlink:href="#DejaVuSans-46"/>
       <use x="95.410156" xlink:href="#DejaVuSans-49"/>
       <use x="159.033203" xlink:href="#DejaVuSans-53"/>
      </g>
     </g>
    </g>
    <g id="ytick_5">
     <g id="line2d_5">
      <g>
       <use style="stroke:#000000;stroke-width:0.8;" x="36.465625" xlink:href="#mc5a1181e84" y="188.583041"/>
      </g>
     </g>
     <g id="text_99">
      <!-- 0.20 -->
      <g transform="translate(7.2 192.38226)scale(0.1 -0.1)">
       <use xlink:href="#DejaVuSans-48"/>
       <use x="63.623047" xlink:href="#DejaVuSans-46"/>
       <use x="95.410156" xlink:href="#DejaVuSans-50"/>
       <use x="159.033203" xlink:href="#DejaVuSans-48"/>
      </g>
     </g>
    </g>
    <g id="ytick_6">
     <g id="line2d_6">
      <g>
       <use style="stroke:#000000;stroke-width:0.8;" x="36.465625" xlink:href="#mc5a1181e84" y="64.789739"/>
      </g>
     </g>
     <g id="text_100">
      <!-- 0.25 -->
      <g transform="translate(7.2 68.588958)scale(0.1 -0.1)">
       <use xlink:href="#DejaVuSans-48"/>
       <use x="63.623047" xlink:href="#DejaVuSans-46"/>
       <use x="95.410156" xlink:href="#DejaVuSans-50"/>
       <use x="159.033203" xlink:href="#DejaVuSans-53"/>
      </g>
     </g>
    </g>
   </g>
   <g id="LineCollection_1">
    <path clip-path="url(#p1cb36aef0f)" d="M 43.589029 683.75625 
L 43.589029 683.75625 
L 57.835838 683.75625 
L 57.835838 683.75625 
" style="fill:none;stroke:#ff7f0e;stroke-width:1.5;"/>
    <path clip-path="url(#p1cb36aef0f)" d="M 72.082646 683.75625 
L 72.082646 683.75625 
L 86.329455 683.75625 
L 86.329455 683.75625 
" style="fill:none;stroke:#ff7f0e;stroke-width:1.5;"/>
    <path clip-path="url(#p1cb36aef0f)" d="M 50.712434 683.75625 
L 50.712434 665.642864 
L 79.206051 665.642864 
L 79.206051 683.75625 
" style="fill:none;stroke:#ff7f0e;stroke-width:1.5;"/>
    <path clip-path="url(#p1cb36aef0f)" d="M 100.576263 683.75625 
L 100.576263 683.75625 
L 114.823072 683.75625 
L 114.823072 683.75625 
" style="fill:none;stroke:#ff7f0e;stroke-width:1.5;"/>
    <path clip-path="url(#p1cb36aef0f)" d="M 129.06988 683.75625 
L 129.06988 671.863095 
L 143.316689 671.863095 
L 143.316689 683.75625 
" style="fill:none;stroke:#ff7f0e;stroke-width:1.5;"/>
    <path clip-path="url(#p1cb36aef0f)" d="M 107.699668 683.75625 
L 107.699668 659.812189 
L 136.193285 659.812189 
L 136.193285 671.863095 
" style="fill:none;stroke:#ff7f0e;stroke-width:1.5;"/>
    <path clip-path="url(#p1cb36aef0f)" d="M 64.959242 665.642864 
L 64.959242 639.13342 
L 121.946476 639.13342 
L 121.946476 659.812189 
" style="fill:none;stroke:#ff7f0e;stroke-width:1.5;"/>
    <path clip-path="url(#p1cb36aef0f)" d="M 157.563497 683.75625 
L 157.563497 683.75625 
L 171.810306 683.75625 
L 171.810306 683.75625 
" style="fill:none;stroke:#ff7f0e;stroke-width:1.5;"/>
    <path clip-path="url(#p1cb36aef0f)" d="M 186.057114 683.75625 
L 186.057114 683.75625 
L 200.303923 683.75625 
L 200.303923 683.75625 
" style="fill:none;stroke:#ff7f0e;stroke-width:1.5;"/>
    <path clip-path="url(#p1cb36aef0f)" d="M 164.686902 683.75625 
L 164.686902 661.9968 
L 193.180519 661.9968 
L 193.180519 683.75625 
" style="fill:none;stroke:#ff7f0e;stroke-width:1.5;"/>
    <path clip-path="url(#p1cb36aef0f)" d="M 214.550731 683.75625 
L 214.550731 666.380854 
L 228.79754 666.380854 
L 228.79754 683.75625 
" style="fill:none;stroke:#ff7f0e;stroke-width:1.5;"/>
    <path clip-path="url(#p1cb36aef0f)" d="M 243.044348 683.75625 
L 243.044348 665.750455 
L 257.291157 665.750455 
L 257.291157 683.75625 
" style="fill:none;stroke:#ff7f0e;stroke-width:1.5;"/>
    <path clip-path="url(#p1cb36aef0f)" d="M 221.674136 666.380854 
L 221.674136 640.951715 
L 250.167753 640.951715 
L 250.167753 665.750455 
" style="fill:none;stroke:#ff7f0e;stroke-width:1.5;"/>
    <path clip-path="url(#p1cb36aef0f)" d="M 178.93371 661.9968 
L 178.93371 629.771719 
L 235.920944 629.771719 
L 235.920944 640.951715 
" style="fill:none;stroke:#ff7f0e;stroke-width:1.5;"/>
    <path clip-path="url(#p1cb36aef0f)" d="M 93.452859 639.13342 
L 93.452859 593.524862 
L 207.427327 593.524862 
L 207.427327 629.771719 
" style="fill:none;stroke:#ff7f0e;stroke-width:1.5;"/>
    <path clip-path="url(#p1cb36aef0f)" d="M 271.537965 683.75625 
L 271.537965 665.768938 
L 285.784774 665.768938 
L 285.784774 683.75625 
" style="fill:none;stroke:#ff7f0e;stroke-width:1.5;"/>
    <path clip-path="url(#p1cb36aef0f)" d="M 300.031582 683.75625 
L 300.031582 658.973582 
L 314.278391 658.973582 
L 314.278391 683.75625 
" style="fill:none;stroke:#ff7f0e;stroke-width:1.5;"/>
    <path clip-path="url(#p1cb36aef0f)" d="M 278.66137 665.768938 
L 278.66137 647.629206 
L 307.154987 647.629206 
L 307.154987 658.973582 
" style="fill:none;stroke:#ff7f0e;stroke-width:1.5;"/>
    <path clip-path="url(#p1cb36aef0f)" d="M 328.525199 683.75625 
L 328.525199 683.75625 
L 342.772008 683.75625 
L 342.772008 683.75625 
" style="fill:none;stroke:#ff7f0e;stroke-width:1.5;"/>
    <path clip-path="url(#p1cb36aef0f)" d="M 357.018816 683.75625 
L 357.018816 661.643731 
L 371.265625 661.643731 
L 371.265625 683.75625 
" style="fill:none;stroke:#ff7f0e;stroke-width:1.5;"/>
    <path clip-path="url(#p1cb36aef0f)" d="M 335.648604 683.75625 
L 335.648604 634.365773 
L 364.142221 634.365773 
L 364.142221 661.643731 
" style="fill:none;stroke:#ff7f0e;stroke-width:1.5;"/>
    <path clip-path="url(#p1cb36aef0f)" d="M 292.908178 647.629206 
L 292.908178 620.37315 
L 349.895412 620.37315 
L 349.895412 634.365773 
" style="fill:none;stroke:#ff7f0e;stroke-width:1.5;"/>
    <path clip-path="url(#p1cb36aef0f)" d="M 385.512434 683.75625 
L 385.512434 683.75625 
L 399.759242 683.75625 
L 399.759242 683.75625 
" style="fill:none;stroke:#ff7f0e;stroke-width:1.5;"/>
    <path clip-path="url(#p1cb36aef0f)" d="M 414.006051 683.75625 
L 414.006051 665.623188 
L 428.252859 665.623188 
L 428.252859 683.75625 
" style="fill:none;stroke:#ff7f0e;stroke-width:1.5;"/>
    <path clip-path="url(#p1cb36aef0f)" d="M 392.635838 683.75625 
L 392.635838 657.519163 
L 421.129455 657.519163 
L 421.129455 665.623188 
" style="fill:none;stroke:#ff7f0e;stroke-width:1.5;"/>
    <path clip-path="url(#p1cb36aef0f)" d="M 442.499668 683.75625 
L 442.499668 665.673258 
L 456.746476 665.673258 
L 456.746476 683.75625 
" style="fill:none;stroke:#ff7f0e;stroke-width:1.5;"/>
    <path clip-path="url(#p1cb36aef0f)" d="M 470.993285 683.75625 
L 470.993285 665.660577 
L 485.240093 665.660577 
L 485.240093 683.75625 
" style="fill:none;stroke:#ff7f0e;stroke-width:1.5;"/>
    <path clip-path="url(#p1cb36aef0f)" d="M 449.623072 665.673258 
L 449.623072 653.224006 
L 478.116689 653.224006 
L 478.116689 665.660577 
" style="fill:none;stroke:#ff7f0e;stroke-width:1.5;"/>
    <path clip-path="url(#p1cb36aef0f)" d="M 406.882646 657.519163 
L 406.882646 597.604969 
L 463.86988 597.604969 
L 463.86988 653.224006 
" style="fill:none;stroke:#ff7f0e;stroke-width:1.5;"/>
    <path clip-path="url(#p1cb36aef0f)" d="M 321.401795 620.37315 
L 321.401795 577.503838 
L 435.376263 577.503838 
L 435.376263 597.604969 
" style="fill:none;stroke:#ff7f0e;stroke-width:1.5;"/>
    <path clip-path="url(#p1cb36aef0f)" d="M 150.440093 593.524862 
L 150.440093 533.164303 
L 378.389029 533.164303 
L 378.389029 577.503838 
" style="fill:none;stroke:#ff7f0e;stroke-width:1.5;"/>
   </g>
   <g id="LineCollection_2">
    <path clip-path="url(#p1cb36aef0f)" d="M 499.486902 683.75625 
L 499.486902 615.807336 
L 513.73371 615.807336 
L 513.73371 683.75625 
" style="fill:none;stroke:#2ca02c;stroke-width:1.5;"/>
    <path clip-path="url(#p1cb36aef0f)" d="M 527.980519 683.75625 
L 527.980519 643.753489 
L 542.227327 643.753489 
L 542.227327 683.75625 
" style="fill:none;stroke:#2ca02c;stroke-width:1.5;"/>
    <path clip-path="url(#p1cb36aef0f)" d="M 556.474136 683.75625 
L 556.474136 638.703028 
L 570.720944 638.703028 
L 570.720944 683.75625 
" style="fill:none;stroke:#2ca02c;stroke-width:1.5;"/>
    <path clip-path="url(#p1cb36aef0f)" d="M 535.103923 643.753489 
L 535.103923 616.323194 
L 563.59754 616.323194 
L 563.59754 638.703028 
" style="fill:none;stroke:#2ca02c;stroke-width:1.5;"/>
    <path clip-path="url(#p1cb36aef0f)" d="M 584.967753 683.75625 
L 584.967753 643.756063 
L 599.214561 643.756063 
L 599.214561 683.75625 
" style="fill:none;stroke:#2ca02c;stroke-width:1.5;"/>
    <path clip-path="url(#p1cb36aef0f)" d="M 613.46137 683.75625 
L 613.46137 639.751367 
L 627.708178 639.751367 
L 627.708178 683.75625 
" style="fill:none;stroke:#2ca02c;stroke-width:1.5;"/>
    <path clip-path="url(#p1cb36aef0f)" d="M 592.091157 643.756063 
L 592.091157 602.413138 
L 620.584774 602.413138 
L 620.584774 639.751367 
" style="fill:none;stroke:#2ca02c;stroke-width:1.5;"/>
    <path clip-path="url(#p1cb36aef0f)" d="M 549.350731 616.323194 
L 549.350731 576.131973 
L 606.337965 576.131973 
L 606.337965 602.413138 
" style="fill:none;stroke:#2ca02c;stroke-width:1.5;"/>
    <path clip-path="url(#p1cb36aef0f)" d="M 641.954987 683.75625 
L 641.954987 640.878955 
L 656.201795 640.878955 
L 656.201795 683.75625 
" style="fill:none;stroke:#2ca02c;stroke-width:1.5;"/>
    <path clip-path="url(#p1cb36aef0f)" d="M 670.448604 683.75625 
L 670.448604 633.590553 
L 684.695412 633.590553 
L 684.695412 683.75625 
" style="fill:none;stroke:#2ca02c;stroke-width:1.5;"/>
    <path clip-path="url(#p1cb36aef0f)" d="M 649.078391 640.878955 
L 649.078391 603.748463 
L 677.572008 603.748463 
L 677.572008 633.590553 
" style="fill:none;stroke:#2ca02c;stroke-width:1.5;"/>
    <path clip-path="url(#p1cb36aef0f)" d="M 698.942221 683.75625 
L 698.942221 645.161597 
L 713.189029 645.161597 
L 713.189029 683.75625 
" style="fill:none;stroke:#2ca02c;stroke-width:1.5;"/>
    <path clip-path="url(#p1cb36aef0f)" d="M 727.435838 683.75625 
L 727.435838 632.736406 
L 741.682646 632.736406 
L 741.682646 683.75625 
" style="fill:none;stroke:#2ca02c;stroke-width:1.5;"/>
    <path clip-path="url(#p1cb36aef0f)" d="M 706.065625 645.161597 
L 706.065625 592.795232 
L 734.559242 592.795232 
L 734.559242 632.736406 
" style="fill:none;stroke:#2ca02c;stroke-width:1.5;"/>
    <path clip-path="url(#p1cb36aef0f)" d="M 663.325199 603.748463 
L 663.325199 530.924891 
L 720.312434 530.924891 
L 720.312434 592.795232 
" style="fill:none;stroke:#2ca02c;stroke-width:1.5;"/>
    <path clip-path="url(#p1cb36aef0f)" d="M 577.844348 576.131973 
L 577.844348 525.650867 
L 691.818816 525.650867 
L 691.818816 530.924891 
" style="fill:none;stroke:#2ca02c;stroke-width:1.5;"/>
    <path clip-path="url(#p1cb36aef0f)" d="M 506.610306 615.807336 
L 506.610306 438.076497 
L 634.831582 438.076497 
L 634.831582 525.650867 
" style="fill:none;stroke:#2ca02c;stroke-width:1.5;"/>
   </g>
   <g id="LineCollection_3">
    <path clip-path="url(#p1cb36aef0f)" d="M 784.423072 683.75625 
L 784.423072 683.75625 
L 798.66988 683.75625 
L 798.66988 683.75625 
" style="fill:none;stroke:#d62728;stroke-width:1.5;"/>
    <path clip-path="url(#p1cb36aef0f)" d="M 812.916689 683.75625 
L 812.916689 637.33495 
L 827.163497 637.33495 
L 827.163497 683.75625 
" style="fill:none;stroke:#d62728;stroke-width:1.5;"/>
    <path clip-path="url(#p1cb36aef0f)" d="M 791.546476 683.75625 
L 791.546476 628.336327 
L 820.040093 628.336327 
L 820.040093 637.33495 
" style="fill:none;stroke:#d62728;stroke-width:1.5;"/>
    <path clip-path="url(#p1cb36aef0f)" d="M 770.176263 683.75625 
L 770.176263 573.932299 
L 805.793285 573.932299 
L 805.793285 628.336327 
" style="fill:none;stroke:#d62728;stroke-width:1.5;"/>
    <path clip-path="url(#p1cb36aef0f)" d="M 855.657114 683.75625 
L 855.657114 683.75625 
L 869.903923 683.75625 
L 869.903923 683.75625 
" style="fill:none;stroke:#d62728;stroke-width:1.5;"/>
    <path clip-path="url(#p1cb36aef0f)" d="M 841.410306 683.75625 
L 841.410306 623.051149 
L 862.780519 623.051149 
L 862.780519 683.75625 
" style="fill:none;stroke:#d62728;stroke-width:1.5;"/>
    <path clip-path="url(#p1cb36aef0f)" d="M 884.150731 683.75625 
L 884.150731 638.26932 
L 898.39754 638.26932 
L 898.39754 683.75625 
" style="fill:none;stroke:#d62728;stroke-width:1.5;"/>
    <path clip-path="url(#p1cb36aef0f)" d="M 912.644348 683.75625 
L 912.644348 633.682886 
L 926.891157 633.682886 
L 926.891157 683.75625 
" style="fill:none;stroke:#d62728;stroke-width:1.5;"/>
    <path clip-path="url(#p1cb36aef0f)" d="M 891.274136 638.26932 
L 891.274136 599.717435 
L 919.767753 599.717435 
L 919.767753 633.682886 
" style="fill:none;stroke:#d62728;stroke-width:1.5;"/>
    <path clip-path="url(#p1cb36aef0f)" d="M 852.095412 623.051149 
L 852.095412 564.657548 
L 905.520944 564.657548 
L 905.520944 599.717435 
" style="fill:none;stroke:#d62728;stroke-width:1.5;"/>
    <path clip-path="url(#p1cb36aef0f)" d="M 787.984774 573.932299 
L 787.984774 485.820182 
L 878.808178 485.820182 
L 878.808178 564.657548 
" style="fill:none;stroke:#d62728;stroke-width:1.5;"/>
    <path clip-path="url(#p1cb36aef0f)" d="M 755.929455 683.75625 
L 755.929455 441.143711 
L 833.396476 441.143711 
L 833.396476 485.820182 
" style="fill:none;stroke:#d62728;stroke-width:1.5;"/>
   </g>
   <g id="LineCollection_4">
    <path clip-path="url(#p1cb36aef0f)" d="M 941.137965 683.75625 
L 941.137965 647.848364 
L 955.384774 647.848364 
L 955.384774 683.75625 
" style="fill:none;stroke:#9467bd;stroke-width:1.5;"/>
    <path clip-path="url(#p1cb36aef0f)" d="M 969.631582 683.75625 
L 969.631582 644.383341 
L 983.878391 644.383341 
L 983.878391 683.75625 
" style="fill:none;stroke:#9467bd;stroke-width:1.5;"/>
    <path clip-path="url(#p1cb36aef0f)" d="M 948.26137 647.848364 
L 948.26137 606.899248 
L 976.754987 606.899248 
L 976.754987 644.383341 
" style="fill:none;stroke:#9467bd;stroke-width:1.5;"/>
    <path clip-path="url(#p1cb36aef0f)" d="M 998.125199 683.75625 
L 998.125199 633.946813 
L 1012.372008 633.946813 
L 1012.372008 683.75625 
" style="fill:none;stroke:#9467bd;stroke-width:1.5;"/>
    <path clip-path="url(#p1cb36aef0f)" d="M 1026.618816 683.75625 
L 1026.618816 594.977207 
L 1040.865625 594.977207 
L 1040.865625 683.75625 
" style="fill:none;stroke:#9467bd;stroke-width:1.5;"/>
    <path clip-path="url(#p1cb36aef0f)" d="M 1005.248604 633.946813 
L 1005.248604 579.106786 
L 1033.742221 579.106786 
L 1033.742221 594.977207 
" style="fill:none;stroke:#9467bd;stroke-width:1.5;"/>
    <path clip-path="url(#p1cb36aef0f)" d="M 962.508178 606.899248 
L 962.508178 556.740913 
L 1019.495412 556.740913 
L 1019.495412 579.106786 
" style="fill:none;stroke:#9467bd;stroke-width:1.5;"/>
    <path clip-path="url(#p1cb36aef0f)" d="M 1055.112434 683.75625 
L 1055.112434 683.75625 
L 1069.359242 683.75625 
L 1069.359242 683.75625 
" style="fill:none;stroke:#9467bd;stroke-width:1.5;"/>
    <path clip-path="url(#p1cb36aef0f)" d="M 1083.606051 683.75625 
L 1083.606051 647.481956 
L 1097.852859 647.481956 
L 1097.852859 683.75625 
" style="fill:none;stroke:#9467bd;stroke-width:1.5;"/>
    <path clip-path="url(#p1cb36aef0f)" d="M 1062.235838 683.75625 
L 1062.235838 610.61497 
L 1090.729455 610.61497 
L 1090.729455 647.481956 
" style="fill:none;stroke:#9467bd;stroke-width:1.5;"/>
    <path clip-path="url(#p1cb36aef0f)" d="M 1112.099668 683.75625 
L 1112.099668 634.503387 
L 1126.346476 634.503387 
L 1126.346476 683.75625 
" style="fill:none;stroke:#9467bd;stroke-width:1.5;"/>
    <path clip-path="url(#p1cb36aef0f)" d="M 1140.593285 683.75625 
L 1140.593285 621.360378 
L 1154.840093 621.360378 
L 1154.840093 683.75625 
" style="fill:none;stroke:#9467bd;stroke-width:1.5;"/>
    <path clip-path="url(#p1cb36aef0f)" d="M 1119.223072 634.503387 
L 1119.223072 592.040699 
L 1147.716689 592.040699 
L 1147.716689 621.360378 
" style="fill:none;stroke:#9467bd;stroke-width:1.5;"/>
    <path clip-path="url(#p1cb36aef0f)" d="M 1076.482646 610.61497 
L 1076.482646 545.386618 
L 1133.46988 545.386618 
L 1133.46988 592.040699 
" style="fill:none;stroke:#9467bd;stroke-width:1.5;"/>
    <path clip-path="url(#p1cb36aef0f)" d="M 991.001795 556.740913 
L 991.001795 480.716007 
L 1104.976263 480.716007 
L 1104.976263 545.386618 
" style="fill:none;stroke:#9467bd;stroke-width:1.5;"/>
   </g>
   <g id="LineCollection_5">
    <path clip-path="url(#p1cb36aef0f)" d="M 1183.33371 683.75625 
L 1183.33371 683.75625 
L 1197.580519 683.75625 
L 1197.580519 683.75625 
" style="fill:none;stroke:#8c564b;stroke-width:1.5;"/>
    <path clip-path="url(#p1cb36aef0f)" d="M 1169.086902 683.75625 
L 1169.086902 613.795843 
L 1190.457114 613.795843 
L 1190.457114 683.75625 
" style="fill:none;stroke:#8c564b;stroke-width:1.5;"/>
    <path clip-path="url(#p1cb36aef0f)" d="M 1211.827327 683.75625 
L 1211.827327 608.384717 
L 1226.074136 608.384717 
L 1226.074136 683.75625 
" style="fill:none;stroke:#8c564b;stroke-width:1.5;"/>
    <path clip-path="url(#p1cb36aef0f)" d="M 1240.320944 683.75625 
L 1240.320944 579.641754 
L 1254.567753 579.641754 
L 1254.567753 683.75625 
" style="fill:none;stroke:#8c564b;stroke-width:1.5;"/>
    <path clip-path="url(#p1cb36aef0f)" d="M 1218.950731 608.384717 
L 1218.950731 544.982169 
L 1247.444348 544.982169 
L 1247.444348 579.641754 
" style="fill:none;stroke:#8c564b;stroke-width:1.5;"/>
    <path clip-path="url(#p1cb36aef0f)" d="M 1179.772008 613.795843 
L 1179.772008 526.939733 
L 1233.19754 526.939733 
L 1233.19754 544.982169 
" style="fill:none;stroke:#8c564b;stroke-width:1.5;"/>
    <path clip-path="url(#p1cb36aef0f)" d="M 1268.814561 683.75625 
L 1268.814561 623.292192 
L 1283.06137 623.292192 
L 1283.06137 683.75625 
" style="fill:none;stroke:#8c564b;stroke-width:1.5;"/>
    <path clip-path="url(#p1cb36aef0f)" d="M 1297.308178 683.75625 
L 1297.308178 590.663558 
L 1311.554987 590.663558 
L 1311.554987 683.75625 
" style="fill:none;stroke:#8c564b;stroke-width:1.5;"/>
    <path clip-path="url(#p1cb36aef0f)" d="M 1275.937965 623.292192 
L 1275.937965 567.408349 
L 1304.431582 567.408349 
L 1304.431582 590.663558 
" style="fill:none;stroke:#8c564b;stroke-width:1.5;"/>
    <path clip-path="url(#p1cb36aef0f)" d="M 1325.801795 683.75625 
L 1325.801795 593.324452 
L 1340.048604 593.324452 
L 1340.048604 683.75625 
" style="fill:none;stroke:#8c564b;stroke-width:1.5;"/>
    <path clip-path="url(#p1cb36aef0f)" d="M 1354.295412 683.75625 
L 1354.295412 587.278467 
L 1368.542221 587.278467 
L 1368.542221 683.75625 
" style="fill:none;stroke:#8c564b;stroke-width:1.5;"/>
    <path clip-path="url(#p1cb36aef0f)" d="M 1332.925199 593.324452 
L 1332.925199 537.783717 
L 1361.418816 537.783717 
L 1361.418816 587.278467 
" style="fill:none;stroke:#8c564b;stroke-width:1.5;"/>
    <path clip-path="url(#p1cb36aef0f)" d="M 1290.184774 567.408349 
L 1290.184774 455.893041 
L 1347.172008 455.893041 
L 1347.172008 537.783717 
" style="fill:none;stroke:#8c564b;stroke-width:1.5;"/>
    <path clip-path="url(#p1cb36aef0f)" d="M 1206.484774 526.939733 
L 1206.484774 395.074142 
L 1318.678391 395.074142 
L 1318.678391 455.893041 
" style="fill:none;stroke:#8c564b;stroke-width:1.5;"/>
   </g>
   <g id="LineCollection_6">
    <path clip-path="url(#p1cb36aef0f)" d="M 264.414561 533.164303 
L 264.414561 352.3168 
L 570.720944 352.3168 
L 570.720944 438.076497 
" style="fill:none;stroke:#1f77b4;stroke-width:1.5;"/>
    <path clip-path="url(#p1cb36aef0f)" d="M 1047.989029 480.716007 
L 1047.989029 310.461806 
L 1262.581582 310.461806 
L 1262.581582 395.074142 
" style="fill:none;stroke:#1f77b4;stroke-width:1.5;"/>
    <path clip-path="url(#p1cb36aef0f)" d="M 794.662965 441.143711 
L 794.662965 207.548443 
L 1155.285306 207.548443 
L 1155.285306 310.461806 
" style="fill:none;stroke:#1f77b4;stroke-width:1.5;"/>
    <path clip-path="url(#p1cb36aef0f)" d="M 417.567753 352.3168 
L 417.567753 62.499107 
L 974.974136 62.499107 
L 974.974136 207.548443 
" style="fill:none;stroke:#1f77b4;stroke-width:1.5;"/>
   </g>
   <g id="patch_3">
    <path d="M 36.465625 683.75625 
L 36.465625 31.43625 
" style="fill:none;stroke:#000000;stroke-linecap:square;stroke-linejoin:miter;stroke-width:0.8;"/>
   </g>
   <g id="patch_4">
    <path d="M 1375.665625 683.75625 
L 1375.665625 31.43625 
" style="fill:none;stroke:#000000;stroke-linecap:square;stroke-linejoin:miter;stroke-width:0.8;"/>
   </g>
   <g id="patch_5">
    <path d="M 36.465625 683.75625 
L 1375.665625 683.75625 
" style="fill:none;stroke:#000000;stroke-linecap:square;stroke-linejoin:miter;stroke-width:0.8;"/>
   </g>
   <g id="patch_6">
    <path d="M 36.465625 31.43625 
L 1375.665625 31.43625 
" style="fill:none;stroke:#000000;stroke-linecap:square;stroke-linejoin:miter;stroke-width:0.8;"/>
   </g>
   <g id="text_101">
    <!-- Ride Destination Dendrogram with 5 Clusters -->
    <g transform="translate(434.085625 25.43625)scale(0.24 -0.24)">
     <defs>
      <path d="M 44.390625 34.1875 
Q 47.5625 33.109375 50.5625 29.59375 
Q 53.5625 26.078125 56.59375 19.921875 
L 66.609375 0 
L 56 0 
L 46.6875 18.703125 
Q 43.0625 26.03125 39.671875 28.421875 
Q 36.28125 30.8125 30.421875 30.8125 
L 19.671875 30.8125 
L 19.671875 0 
L 9.8125 0 
L 9.8125 72.90625 
L 32.078125 72.90625 
Q 44.578125 72.90625 50.734375 67.671875 
Q 56.890625 62.453125 56.890625 51.90625 
Q 56.890625 45.015625 53.6875 40.46875 
Q 50.484375 35.9375 44.390625 34.1875 
z
M 19.671875 64.796875 
L 19.671875 38.921875 
L 32.078125 38.921875 
Q 39.203125 38.921875 42.84375 42.21875 
Q 46.484375 45.515625 46.484375 51.90625 
Q 46.484375 58.296875 42.84375 61.546875 
Q 39.203125 64.796875 32.078125 64.796875 
z
" id="DejaVuSans-82"/>
      <path d="M 9.421875 54.6875 
L 18.40625 54.6875 
L 18.40625 0 
L 9.421875 0 
z
M 9.421875 75.984375 
L 18.40625 75.984375 
L 18.40625 64.59375 
L 9.421875 64.59375 
z
" id="DejaVuSans-105"/>
      <path d="M 45.40625 46.390625 
L 45.40625 75.984375 
L 54.390625 75.984375 
L 54.390625 0 
L 45.40625 0 
L 45.40625 8.203125 
Q 42.578125 3.328125 38.25 0.953125 
Q 33.9375 -1.421875 27.875 -1.421875 
Q 17.96875 -1.421875 11.734375 6.484375 
Q 5.515625 14.40625 5.515625 27.296875 
Q 5.515625 40.1875 11.734375 48.09375 
Q 17.96875 56 27.875 56 
Q 33.9375 56 38.25 53.625 
Q 42.578125 51.265625 45.40625 46.390625 
z
M 14.796875 27.296875 
Q 14.796875 17.390625 18.875 11.75 
Q 22.953125 6.109375 30.078125 6.109375 
Q 37.203125 6.109375 41.296875 11.75 
Q 45.40625 17.390625 45.40625 27.296875 
Q 45.40625 37.203125 41.296875 42.84375 
Q 37.203125 48.484375 30.078125 48.484375 
Q 22.953125 48.484375 18.875 42.84375 
Q 14.796875 37.203125 14.796875 27.296875 
z
" id="DejaVuSans-100"/>
      <path d="M 56.203125 29.59375 
L 56.203125 25.203125 
L 14.890625 25.203125 
Q 15.484375 15.921875 20.484375 11.0625 
Q 25.484375 6.203125 34.421875 6.203125 
Q 39.59375 6.203125 44.453125 7.46875 
Q 49.3125 8.734375 54.109375 11.28125 
L 54.109375 2.78125 
Q 49.265625 0.734375 44.1875 -0.34375 
Q 39.109375 -1.421875 33.890625 -1.421875 
Q 20.796875 -1.421875 13.15625 6.1875 
Q 5.515625 13.8125 5.515625 26.8125 
Q 5.515625 40.234375 12.765625 48.109375 
Q 20.015625 56 32.328125 56 
Q 43.359375 56 49.78125 48.890625 
Q 56.203125 41.796875 56.203125 29.59375 
z
M 47.21875 32.234375 
Q 47.125 39.59375 43.09375 43.984375 
Q 39.0625 48.390625 32.421875 48.390625 
Q 24.90625 48.390625 20.390625 44.140625 
Q 15.875 39.890625 15.1875 32.171875 
z
" id="DejaVuSans-101"/>
      <path id="DejaVuSans-32"/>
      <path d="M 19.671875 64.796875 
L 19.671875 8.109375 
L 31.59375 8.109375 
Q 46.6875 8.109375 53.6875 14.9375 
Q 60.6875 21.78125 60.6875 36.53125 
Q 60.6875 51.171875 53.6875 57.984375 
Q 46.6875 64.796875 31.59375 64.796875 
z
M 9.8125 72.90625 
L 30.078125 72.90625 
Q 51.265625 72.90625 61.171875 64.09375 
Q 71.09375 55.28125 71.09375 36.53125 
Q 71.09375 17.671875 61.125 8.828125 
Q 51.171875 0 30.078125 0 
L 9.8125 0 
z
" id="DejaVuSans-68"/>
      <path d="M 44.28125 53.078125 
L 44.28125 44.578125 
Q 40.484375 46.53125 36.375 47.5 
Q 32.28125 48.484375 27.875 48.484375 
Q 21.1875 48.484375 17.84375 46.4375 
Q 14.5 44.390625 14.5 40.28125 
Q 14.5 37.15625 16.890625 35.375 
Q 19.28125 33.59375 26.515625 31.984375 
L 29.59375 31.296875 
Q 39.15625 29.25 43.1875 25.515625 
Q 47.21875 21.78125 47.21875 15.09375 
Q 47.21875 7.46875 41.1875 3.015625 
Q 35.15625 -1.421875 24.609375 -1.421875 
Q 20.21875 -1.421875 15.453125 -0.5625 
Q 10.6875 0.296875 5.421875 2 
L 5.421875 11.28125 
Q 10.40625 8.6875 15.234375 7.390625 
Q 20.0625 6.109375 24.8125 6.109375 
Q 31.15625 6.109375 34.5625 8.28125 
Q 37.984375 10.453125 37.984375 14.40625 
Q 37.984375 18.0625 35.515625 20.015625 
Q 33.0625 21.96875 24.703125 23.78125 
L 21.578125 24.515625 
Q 13.234375 26.265625 9.515625 29.90625 
Q 5.8125 33.546875 5.8125 39.890625 
Q 5.8125 47.609375 11.28125 51.796875 
Q 16.75 56 26.8125 56 
Q 31.78125 56 36.171875 55.265625 
Q 40.578125 54.546875 44.28125 53.078125 
z
" id="DejaVuSans-115"/>
      <path d="M 18.3125 70.21875 
L 18.3125 54.6875 
L 36.8125 54.6875 
L 36.8125 47.703125 
L 18.3125 47.703125 
L 18.3125 18.015625 
Q 18.3125 11.328125 20.140625 9.421875 
Q 21.96875 7.515625 27.59375 7.515625 
L 36.8125 7.515625 
L 36.8125 0 
L 27.59375 0 
Q 17.1875 0 13.234375 3.875 
Q 9.28125 7.765625 9.28125 18.015625 
L 9.28125 47.703125 
L 2.6875 47.703125 
L 2.6875 54.6875 
L 9.28125 54.6875 
L 9.28125 70.21875 
z
" id="DejaVuSans-116"/>
      <path d="M 54.890625 33.015625 
L 54.890625 0 
L 45.90625 0 
L 45.90625 32.71875 
Q 45.90625 40.484375 42.875 44.328125 
Q 39.84375 48.1875 33.796875 48.1875 
Q 26.515625 48.1875 22.3125 43.546875 
Q 18.109375 38.921875 18.109375 30.90625 
L 18.109375 0 
L 9.078125 0 
L 9.078125 54.6875 
L 18.109375 54.6875 
L 18.109375 46.1875 
Q 21.34375 51.125 25.703125 53.5625 
Q 30.078125 56 35.796875 56 
Q 45.21875 56 50.046875 50.171875 
Q 54.890625 44.34375 54.890625 33.015625 
z
" id="DejaVuSans-110"/>
      <path d="M 34.28125 27.484375 
Q 23.390625 27.484375 19.1875 25 
Q 14.984375 22.515625 14.984375 16.5 
Q 14.984375 11.71875 18.140625 8.90625 
Q 21.296875 6.109375 26.703125 6.109375 
Q 34.1875 6.109375 38.703125 11.40625 
Q 43.21875 16.703125 43.21875 25.484375 
L 43.21875 27.484375 
z
M 52.203125 31.203125 
L 52.203125 0 
L 43.21875 0 
L 43.21875 8.296875 
Q 40.140625 3.328125 35.546875 0.953125 
Q 30.953125 -1.421875 24.3125 -1.421875 
Q 15.921875 -1.421875 10.953125 3.296875 
Q 6 8.015625 6 15.921875 
Q 6 25.140625 12.171875 29.828125 
Q 18.359375 34.515625 30.609375 34.515625 
L 43.21875 34.515625 
L 43.21875 35.40625 
Q 43.21875 41.609375 39.140625 45 
Q 35.0625 48.390625 27.6875 48.390625 
Q 23 48.390625 18.546875 47.265625 
Q 14.109375 46.140625 10.015625 43.890625 
L 10.015625 52.203125 
Q 14.9375 54.109375 19.578125 55.046875 
Q 24.21875 56 28.609375 56 
Q 40.484375 56 46.34375 49.84375 
Q 52.203125 43.703125 52.203125 31.203125 
z
" id="DejaVuSans-97"/>
      <path d="M 30.609375 48.390625 
Q 23.390625 48.390625 19.1875 42.75 
Q 14.984375 37.109375 14.984375 27.296875 
Q 14.984375 17.484375 19.15625 11.84375 
Q 23.34375 6.203125 30.609375 6.203125 
Q 37.796875 6.203125 41.984375 11.859375 
Q 46.1875 17.53125 46.1875 27.296875 
Q 46.1875 37.015625 41.984375 42.703125 
Q 37.796875 48.390625 30.609375 48.390625 
z
M 30.609375 56 
Q 42.328125 56 49.015625 48.375 
Q 55.71875 40.765625 55.71875 27.296875 
Q 55.71875 13.875 49.015625 6.21875 
Q 42.328125 -1.421875 30.609375 -1.421875 
Q 18.84375 -1.421875 12.171875 6.21875 
Q 5.515625 13.875 5.515625 27.296875 
Q 5.515625 40.765625 12.171875 48.375 
Q 18.84375 56 30.609375 56 
z
" id="DejaVuSans-111"/>
      <path d="M 41.109375 46.296875 
Q 39.59375 47.171875 37.8125 47.578125 
Q 36.03125 48 33.890625 48 
Q 26.265625 48 22.1875 43.046875 
Q 18.109375 38.09375 18.109375 28.8125 
L 18.109375 0 
L 9.078125 0 
L 9.078125 54.6875 
L 18.109375 54.6875 
L 18.109375 46.1875 
Q 20.953125 51.171875 25.484375 53.578125 
Q 30.03125 56 36.53125 56 
Q 37.453125 56 38.578125 55.875 
Q 39.703125 55.765625 41.0625 55.515625 
z
" id="DejaVuSans-114"/>
      <path d="M 45.40625 27.984375 
Q 45.40625 37.75 41.375 43.109375 
Q 37.359375 48.484375 30.078125 48.484375 
Q 22.859375 48.484375 18.828125 43.109375 
Q 14.796875 37.75 14.796875 27.984375 
Q 14.796875 18.265625 18.828125 12.890625 
Q 22.859375 7.515625 30.078125 7.515625 
Q 37.359375 7.515625 41.375 12.890625 
Q 45.40625 18.265625 45.40625 27.984375 
z
M 54.390625 6.78125 
Q 54.390625 -7.171875 48.1875 -13.984375 
Q 42 -20.796875 29.203125 -20.796875 
Q 24.46875 -20.796875 20.265625 -20.09375 
Q 16.0625 -19.390625 12.109375 -17.921875 
L 12.109375 -9.1875 
Q 16.0625 -11.328125 19.921875 -12.34375 
Q 23.78125 -13.375 27.78125 -13.375 
Q 36.625 -13.375 41.015625 -8.765625 
Q 45.40625 -4.15625 45.40625 5.171875 
L 45.40625 9.625 
Q 42.625 4.78125 38.28125 2.390625 
Q 33.9375 0 27.875 0 
Q 17.828125 0 11.671875 7.65625 
Q 5.515625 15.328125 5.515625 27.984375 
Q 5.515625 40.671875 11.671875 48.328125 
Q 17.828125 56 27.875 56 
Q 33.9375 56 38.28125 53.609375 
Q 42.625 51.21875 45.40625 46.390625 
L 45.40625 54.6875 
L 54.390625 54.6875 
z
" id="DejaVuSans-103"/>
      <path d="M 52 44.1875 
Q 55.375 50.25 60.0625 53.125 
Q 64.75 56 71.09375 56 
Q 79.640625 56 84.28125 50.015625 
Q 88.921875 44.046875 88.921875 33.015625 
L 88.921875 0 
L 79.890625 0 
L 79.890625 32.71875 
Q 79.890625 40.578125 77.09375 44.375 
Q 74.3125 48.1875 68.609375 48.1875 
Q 61.625 48.1875 57.5625 43.546875 
Q 53.515625 38.921875 53.515625 30.90625 
L 53.515625 0 
L 44.484375 0 
L 44.484375 32.71875 
Q 44.484375 40.625 41.703125 44.40625 
Q 38.921875 48.1875 33.109375 48.1875 
Q 26.21875 48.1875 22.15625 43.53125 
Q 18.109375 38.875 18.109375 30.90625 
L 18.109375 0 
L 9.078125 0 
L 9.078125 54.6875 
L 18.109375 54.6875 
L 18.109375 46.1875 
Q 21.1875 51.21875 25.484375 53.609375 
Q 29.78125 56 35.6875 56 
Q 41.65625 56 45.828125 52.96875 
Q 50 49.953125 52 44.1875 
z
" id="DejaVuSans-109"/>
      <path d="M 4.203125 54.6875 
L 13.1875 54.6875 
L 24.421875 12.015625 
L 35.59375 54.6875 
L 46.1875 54.6875 
L 57.421875 12.015625 
L 68.609375 54.6875 
L 77.59375 54.6875 
L 63.28125 0 
L 52.6875 0 
L 40.921875 44.828125 
L 29.109375 0 
L 18.5 0 
z
" id="DejaVuSans-119"/>
      <path d="M 54.890625 33.015625 
L 54.890625 0 
L 45.90625 0 
L 45.90625 32.71875 
Q 45.90625 40.484375 42.875 44.328125 
Q 39.84375 48.1875 33.796875 48.1875 
Q 26.515625 48.1875 22.3125 43.546875 
Q 18.109375 38.921875 18.109375 30.90625 
L 18.109375 0 
L 9.078125 0 
L 9.078125 75.984375 
L 18.109375 75.984375 
L 18.109375 46.1875 
Q 21.34375 51.125 25.703125 53.5625 
Q 30.078125 56 35.796875 56 
Q 45.21875 56 50.046875 50.171875 
Q 54.890625 44.34375 54.890625 33.015625 
z
" id="DejaVuSans-104"/>
      <path d="M 64.40625 67.28125 
L 64.40625 56.890625 
Q 59.421875 61.53125 53.78125 63.8125 
Q 48.140625 66.109375 41.796875 66.109375 
Q 29.296875 66.109375 22.65625 58.46875 
Q 16.015625 50.828125 16.015625 36.375 
Q 16.015625 21.96875 22.65625 14.328125 
Q 29.296875 6.6875 41.796875 6.6875 
Q 48.140625 6.6875 53.78125 8.984375 
Q 59.421875 11.28125 64.40625 15.921875 
L 64.40625 5.609375 
Q 59.234375 2.09375 53.4375 0.328125 
Q 47.65625 -1.421875 41.21875 -1.421875 
Q 24.65625 -1.421875 15.125 8.703125 
Q 5.609375 18.84375 5.609375 36.375 
Q 5.609375 53.953125 15.125 64.078125 
Q 24.65625 74.21875 41.21875 74.21875 
Q 47.75 74.21875 53.53125 72.484375 
Q 59.328125 70.75 64.40625 67.28125 
z
" id="DejaVuSans-67"/>
      <path d="M 9.421875 75.984375 
L 18.40625 75.984375 
L 18.40625 0 
L 9.421875 0 
z
" id="DejaVuSans-108"/>
      <path d="M 8.5 21.578125 
L 8.5 54.6875 
L 17.484375 54.6875 
L 17.484375 21.921875 
Q 17.484375 14.15625 20.5 10.265625 
Q 23.53125 6.390625 29.59375 6.390625 
Q 36.859375 6.390625 41.078125 11.03125 
Q 45.3125 15.671875 45.3125 23.6875 
L 45.3125 54.6875 
L 54.296875 54.6875 
L 54.296875 0 
L 45.3125 0 
L 45.3125 8.40625 
Q 42.046875 3.421875 37.71875 1 
Q 33.40625 -1.421875 27.6875 -1.421875 
Q 18.265625 -1.421875 13.375 4.4375 
Q 8.5 10.296875 8.5 21.578125 
z
M 31.109375 56 
z
" id="DejaVuSans-117"/>
     </defs>
     <use xlink:href="#DejaVuSans-82"/>
     <use x="69.482422" xlink:href="#DejaVuSans-105"/>
     <use x="97.265625" xlink:href="#DejaVuSans-100"/>
     <use x="160.742188" xlink:href="#DejaVuSans-101"/>
     <use x="222.265625" xlink:href="#DejaVuSans-32"/>
     <use x="254.052734" xlink:href="#DejaVuSans-68"/>
     <use x="331.054688" xlink:href="#DejaVuSans-101"/>
     <use x="392.578125" xlink:href="#DejaVuSans-115"/>
     <use x="444.677734" xlink:href="#DejaVuSans-116"/>
     <use x="483.886719" xlink:href="#DejaVuSans-105"/>
     <use x="511.669922" xlink:href="#DejaVuSans-110"/>
     <use x="575.048828" xlink:href="#DejaVuSans-97"/>
     <use x="636.328125" xlink:href="#DejaVuSans-116"/>
     <use x="675.537109" xlink:href="#DejaVuSans-105"/>
     <use x="703.320312" xlink:href="#DejaVuSans-111"/>
     <use x="764.501953" xlink:href="#DejaVuSans-110"/>
     <use x="827.880859" xlink:href="#DejaVuSans-32"/>
     <use x="859.667969" xlink:href="#DejaVuSans-68"/>
     <use x="936.669922" xlink:href="#DejaVuSans-101"/>
     <use x="998.193359" xlink:href="#DejaVuSans-110"/>
     <use x="1061.572266" xlink:href="#DejaVuSans-100"/>
     <use x="1125.048828" xlink:href="#DejaVuSans-114"/>
     <use x="1163.912109" xlink:href="#DejaVuSans-111"/>
     <use x="1225.09375" xlink:href="#DejaVuSans-103"/>
     <use x="1288.570312" xlink:href="#DejaVuSans-114"/>
     <use x="1329.683594" xlink:href="#DejaVuSans-97"/>
     <use x="1390.962891" xlink:href="#DejaVuSans-109"/>
     <use x="1488.375" xlink:href="#DejaVuSans-32"/>
     <use x="1520.162109" xlink:href="#DejaVuSans-119"/>
     <use x="1601.949219" xlink:href="#DejaVuSans-105"/>
     <use x="1629.732422" xlink:href="#DejaVuSans-116"/>
     <use x="1668.941406" xlink:href="#DejaVuSans-104"/>
     <use x="1732.320312" xlink:href="#DejaVuSans-32"/>
     <use x="1764.107422" xlink:href="#DejaVuSans-53"/>
     <use x="1827.730469" xlink:href="#DejaVuSans-32"/>
     <use x="1859.517578" xlink:href="#DejaVuSans-67"/>
     <use x="1929.341797" xlink:href="#DejaVuSans-108"/>
     <use x="1957.125" xlink:href="#DejaVuSans-117"/>
     <use x="2020.503906" xlink:href="#DejaVuSans-115"/>
     <use x="2072.603516" xlink:href="#DejaVuSans-116"/>
     <use x="2111.8125" xlink:href="#DejaVuSans-101"/>
     <use x="2173.335938" xlink:href="#DejaVuSans-114"/>
     <use x="2214.449219" xlink:href="#DejaVuSans-115"/>
    </g>
   </g>
  </g>
 </g>
 <defs>
  <clipPath id="p1cb36aef0f">
   <rect height="652.32" width="1339.2" x="36.465625" y="31.43625"/>
  </clipPath>
 </defs>
</svg>
